<?xml version="1.0" encoding="utf-8"?>
<!-- Generator: Adobe Illustrator 11.0, SVG Export Plug-In  -->
<!DOCTYPE svg PUBLIC "-//W3C//DTD SVG 1.0//EN"    "http://www.w3.org/TR/2001/REC-SVG-20010904/DTD/svg10.dtd" [
	<!ENTITY ns_flows "http://ns.adobe.com/Flows/1.0/">
	<!ENTITY ns_svg "http://www.w3.org/2000/svg">
	<!ENTITY ns_xlink "http://www.w3.org/1999/xlink">
]>
<svg  xmlns="&ns_svg;" xmlns:xlink="&ns_xlink;" xmlns:a="http://ns.adobe.com/AdobeSVGViewerExtensions/3.0/"
	 width="365" height="484" viewBox="-0.221 -0.055 365 484" xml:space="preserve">
	<defs>
	</defs>
	<g>
		<path fill="#219730" stroke="#000000" stroke-width="4.0803" stroke-miterlimit="1" d="M84.986,470.621
			c11.046,5.296,26.206,7.053,42.067,3.914c20.604-4.074,36.968-15.329,43.313-28.189c-5.156-14.063-22.414-26.756-44.581-31.141
			c-14.271-2.824-27.973-1.685-38.625,2.429c-1.271,0.825-2.493,1.683-3.662,2.569c6.088,8.779,15.145,15.548,25.794,18.993l0,0
			v14.374l0,0C99.469,456.769,91.006,462.797,84.986,470.621L84.986,470.621z"/>
		<path fill="#219730" stroke="#000000" stroke-width="4.0803" stroke-miterlimit="1" d="M84.986,470.621
			c1.144,0.549,2.333,1.06,3.564,1.529c6.576-5.444,18.756-9.875,33.992-12.402l0,0v-27.197l0,0
			c-17.08-2.834-30.322-8.057-36.133-14.422c-1.003,0.671-1.973,1.363-2.911,2.074c6.088,8.779,15.145,15.548,25.794,18.993l0,0
			v14.374l0,0C99.469,456.769,91.006,462.797,84.986,470.621L84.986,470.621z"/>
		<path fill="#219730" stroke="#000000" stroke-width="4.0803" stroke-miterlimit="1" d="M170.282,446.559
			c0.044-0.057,0.088-0.111,0.129-0.168c-6.344-8.161-23.556-14.038-43.707-14.038c-20.29,0-37.598,5.959-43.837,14.206
			c-0.044,0.056-0.085,0.113-0.127,0.168c6.346,8.161,23.559,14.038,43.709,14.038C146.736,460.765,164.043,454.806,170.282,446.559
			L170.282,446.559z"/>
		<path fill="#219730" stroke="#000000" stroke-width="4.0803" stroke-miterlimit="1" d="M17.3,415.358
			c4.066,11.557,13.542,23.518,26.978,32.514c17.452,11.689,36.981,15.302,50.561,10.695c6.299-13.592,3.07-34.771-9.504-53.545
			c-8.095-12.088-18.589-20.971-29.03-25.596c-1.482-0.314-2.952-0.572-4.405-0.771c-1.904,10.514-0.287,21.703,4.809,31.67l0,0
			l-10.165,10.164l0,0C37.334,415.803,27.089,414.082,17.3,415.358L17.3,415.358z"/>
		<path fill="#219730" stroke="#000000" stroke-width="4.0803" stroke-miterlimit="1" d="M17.3,415.358
			c0.42,1.197,0.901,2.399,1.437,3.602c8.502,0.801,20.249,6.28,32.808,15.266l0,0l19.23-19.23l0,0
			c-10.074-14.08-15.744-27.139-15.352-35.748c-1.185-0.236-2.361-0.432-3.524-0.592c-1.904,10.514-0.287,21.703,4.809,31.67l0,0
			l-10.165,10.164l0,0C37.334,415.803,27.089,414.082,17.3,415.358L17.3,415.358z"/>
		<path fill="#219730" stroke="#000000" stroke-width="4.0803" stroke-miterlimit="1" d="M94.627,458.656
			c0.072-0.01,0.142-0.018,0.211-0.027c1.285-10.257-6.731-26.584-20.979-40.831c-14.345-14.349-30.798-22.372-41.042-20.953
			c-0.07,0.009-0.139,0.021-0.209,0.029c-1.283,10.259,6.731,26.584,20.981,40.834C67.934,452.053,84.384,460.076,94.627,458.656
			L94.627,458.656z"/>
		<path fill="#219730" stroke="#000000" stroke-width="4.0803" stroke-miterlimit="1" d="M7.512,319.416
			c-5.297,11.048-7.053,26.206-3.914,42.067c4.075,20.604,15.33,36.968,28.189,43.313c14.063-5.157,26.757-22.414,31.141-44.582
			c2.823-14.271,1.685-27.973-2.429-38.625c-0.826-1.271-1.683-2.493-2.569-3.66c-8.78,6.088-15.548,15.143-18.993,25.794l0,0
			H24.561l0,0C21.363,333.899,15.337,325.437,7.512,319.416L7.512,319.416z"/>
		<path fill="#219730" stroke="#000000" stroke-width="4.0803" stroke-miterlimit="1" d="M7.512,319.416
			c-0.549,1.146-1.059,2.334-1.531,3.564c5.445,6.575,9.876,18.756,12.404,33.991l0,0h27.196l0,0
			c2.833-17.08,8.057-30.322,14.423-36.134c-0.672-1.003-1.364-1.973-2.074-2.908c-8.78,6.088-15.548,15.143-18.993,25.794l0,0
			H24.561l0,0C21.363,333.899,15.337,325.437,7.512,319.416L7.512,319.416z"/>
		<path fill="#219730" stroke="#000000" stroke-width="4.0803" stroke-miterlimit="1" d="M31.573,404.713
			c0.057,0.043,0.113,0.088,0.17,0.13c8.161-6.346,14.038-23.558,14.038-43.708c0-20.289-5.959-37.598-14.208-43.837
			c-0.056-0.042-0.111-0.085-0.167-0.128c-8.161,6.346-14.039,23.56-14.039,43.71C17.367,381.166,23.326,398.474,31.573,404.713
			L31.573,404.713z"/>
		<path fill="#219730" stroke="#000000" stroke-width="4.0803" stroke-miterlimit="1" d="M279.238,419.433
			c-11.046-5.296-26.204-7.052-42.066-3.914c-20.605,4.075-36.969,15.329-43.313,28.189c5.156,14.063,22.414,26.757,44.58,31.142
			c14.272,2.824,27.975,1.684,38.625-2.43c1.271-0.824,2.495-1.683,3.662-2.568c-6.088-8.779-15.143-15.549-25.794-18.994l0,0
			v-14.374l0,0C264.758,433.285,273.22,427.258,279.238,419.433L279.238,419.433z"/>
		<path fill="#219730" stroke="#000000" stroke-width="4.0803" stroke-miterlimit="1" d="M279.238,419.433
			c-1.144-0.548-2.333-1.06-3.563-1.53c-6.576,5.445-18.757,9.877-33.992,12.404l0,0v27.197l0,0
			c17.08,2.833,30.322,8.057,36.135,14.422c1.003-0.672,1.973-1.364,2.908-2.074c-6.088-8.779-15.143-15.549-25.794-18.994l0,0
			v-14.374l0,0C264.758,433.285,273.22,427.258,279.238,419.433L279.238,419.433z"/>
		<path fill="#219730" stroke="#000000" stroke-width="4.0803" stroke-miterlimit="1" d="M193.942,443.496
			c-0.042,0.057-0.087,0.111-0.129,0.168c6.346,8.16,23.558,14.037,43.706,14.037c20.29,0,37.599-5.959,43.839-14.205
			c0.042-0.057,0.085-0.113,0.126-0.169c-6.346-8.161-23.558-14.038-43.709-14.038C217.488,429.289,200.183,435.248,193.942,443.496
			L193.942,443.496z"/>
		<path fill="#219730" stroke="#000000" stroke-width="4.0803" stroke-miterlimit="1" d="M7.512,240.143
			c-5.297,11.046-7.053,26.207-3.914,42.068c4.075,20.603,15.33,36.968,28.189,43.313c14.063-5.156,26.757-22.416,31.141-44.582
			c2.823-14.271,1.685-27.973-2.429-38.625c-0.826-1.271-1.683-2.493-2.569-3.662c-8.78,6.088-15.548,15.144-18.993,25.794l0,0
			H24.561l0,0C21.363,254.625,15.337,246.162,7.512,240.143L7.512,240.143z"/>
		<path fill="#219730" stroke="#000000" stroke-width="4.0803" stroke-miterlimit="1" d="M7.512,240.143
			c-0.549,1.144-1.059,2.333-1.531,3.564c5.445,6.576,9.876,18.756,12.404,33.992l0,0h27.196l0,0
			c2.833-17.08,8.057-30.323,14.423-36.134c-0.672-1.005-1.364-1.975-2.074-2.911c-8.78,6.088-15.548,15.144-18.993,25.794l0,0
			H24.561l0,0C21.363,254.625,15.337,246.162,7.512,240.143L7.512,240.143z"/>
		<path fill="#219730" stroke="#000000" stroke-width="4.0803" stroke-miterlimit="1" d="M31.573,325.438
			c0.057,0.045,0.113,0.088,0.17,0.131c8.161-6.346,14.038-23.558,14.038-43.707c0-20.289-5.959-37.598-14.208-43.836
			c-0.056-0.044-0.111-0.086-0.167-0.127c-8.161,6.346-14.039,23.558-14.039,43.708C17.367,301.894,23.326,319.199,31.573,325.438
			L31.573,325.438z"/>
		<path fill="#219730" stroke="#000000" stroke-width="4.0803" stroke-miterlimit="1" d="M7.512,160.869
			c-5.297,11.046-7.053,26.206-3.914,42.067c4.075,20.604,15.33,36.968,28.189,43.313c14.063-5.156,26.757-22.415,31.141-44.581
			c2.823-14.272,1.685-27.973-2.429-38.625c-0.826-1.271-1.683-2.493-2.569-3.662c-8.78,6.088-15.548,15.144-18.993,25.794l0,0
			H24.561l0,0C21.363,175.352,15.337,166.889,7.512,160.869L7.512,160.869z"/>
		<path fill="#219730" stroke="#000000" stroke-width="4.0803" stroke-miterlimit="1" d="M7.512,160.869
			c-0.549,1.144-1.059,2.333-1.531,3.564c5.445,6.576,9.876,18.756,12.404,33.992l0,0h27.196l0,0
			c2.833-17.08,8.057-30.322,14.423-36.133c-0.672-1.003-1.364-1.975-2.074-2.911c-8.78,6.088-15.548,15.144-18.993,25.794l0,0
			H24.561l0,0C21.363,175.352,15.337,166.889,7.512,160.869L7.512,160.869z"/>
		<path fill="#219730" stroke="#000000" stroke-width="4.0803" stroke-miterlimit="1" d="M31.573,246.165
			c0.057,0.042,0.113,0.088,0.17,0.129c8.161-6.344,14.038-23.556,14.038-43.707c0-20.29-5.959-37.598-14.208-43.837
			c-0.056-0.044-0.111-0.085-0.167-0.127c-8.161,6.346-14.039,23.559-14.039,43.709C17.367,222.619,23.326,239.927,31.573,246.165
			L31.573,246.165z"/>
		<path fill="#219730" stroke="#000000" stroke-width="4.0803" stroke-miterlimit="1" d="M346.925,415.358
			c-4.065,11.557-13.542,23.518-26.978,32.514c-17.451,11.689-36.98,15.302-50.56,10.695c-6.299-13.592-3.071-34.771,9.503-53.545
			c8.096-12.088,18.588-20.971,29.029-25.596c1.482-0.314,2.953-0.572,4.405-0.771c1.904,10.514,0.287,21.703-4.808,31.67l0,0
			l10.164,10.164l0,0C326.891,415.803,337.135,414.082,346.925,415.358L346.925,415.358z"/>
		<path fill="#219730" stroke="#000000" stroke-width="4.0803" stroke-miterlimit="1" d="M346.925,415.358
			c-0.421,1.197-0.901,2.399-1.437,3.602c-8.501,0.801-20.248,6.28-32.809,15.266l0,0l-19.23-19.23l0,0
			c10.075-14.08,15.744-27.139,15.354-35.748c1.184-0.236,2.359-0.432,3.522-0.592c1.904,10.514,0.287,21.703-4.808,31.67l0,0
			l10.164,10.164l0,0C326.891,415.803,337.135,414.082,346.925,415.358L346.925,415.358z"/>
		<path fill="#219730" stroke="#000000" stroke-width="4.0803" stroke-miterlimit="1" d="M269.598,458.656
			c-0.072-0.01-0.141-0.018-0.211-0.027c-1.283-10.257,6.73-26.584,20.979-40.831c14.348-14.349,30.801-22.372,41.044-20.953
			c0.069,0.009,0.138,0.021,0.208,0.029c1.283,10.259-6.73,26.584-20.98,40.834C296.291,452.053,279.841,460.076,269.598,458.656
			L269.598,458.656z"/>
		<path fill="#219730" stroke="#000000" stroke-width="4.0803" stroke-miterlimit="1" d="M356.713,319.408
			c5.297,11.047,7.053,26.205,3.916,42.068c-4.076,20.604-15.332,36.968-28.191,43.313c-14.063-5.156-26.756-22.416-31.14-44.582
			c-2.824-14.271-1.685-27.974,2.427-38.625c0.826-1.271,1.686-2.494,2.571-3.662c8.778,6.088,15.548,15.145,18.993,25.795l0,0
			h14.375l0,0C342.861,333.891,348.889,325.428,356.713,319.408L356.713,319.408z"/>
		<path fill="#219730" stroke="#000000" stroke-width="4.0803" stroke-miterlimit="1" d="M356.713,319.408
			c0.549,1.145,1.061,2.334,1.531,3.563c-5.445,6.578-9.877,18.758-12.403,33.994l0,0h-27.198l0,0
			c-2.832-17.08-8.057-30.322-14.421-36.135c0.671-1.004,1.364-1.974,2.074-2.91c8.778,6.088,15.548,15.145,18.993,25.795l0,0
			h14.375l0,0C342.861,333.891,348.889,325.428,356.713,319.408L356.713,319.408z"/>
		<path fill="#219730" stroke="#000000" stroke-width="4.0803" stroke-miterlimit="1" d="M332.651,404.705
			c-0.058,0.043-0.111,0.086-0.169,0.129c-8.16-6.346-14.037-23.558-14.037-43.707c0-20.289,5.957-37.598,14.206-43.838
			c0.056-0.043,0.111-0.085,0.169-0.126c8.16,6.346,14.037,23.558,14.037,43.71C346.857,381.159,340.898,398.465,332.651,404.705
			L332.651,404.705z"/>
		<path fill="#219730" stroke="#000000" stroke-width="4.0803" stroke-miterlimit="1" d="M356.713,240.135
			c5.297,11.047,7.053,26.206,3.916,42.067c-4.076,20.605-15.332,36.969-28.191,43.313c-14.063-5.156-26.756-22.414-31.14-44.58
			c-2.824-14.271-1.685-27.973,2.427-38.625c0.826-1.271,1.686-2.493,2.571-3.661c8.778,6.086,15.548,15.144,18.993,25.793l0,0
			h14.375l0,0C342.861,254.617,348.889,246.155,356.713,240.135L356.713,240.135z"/>
		<path fill="#219730" stroke="#000000" stroke-width="4.0803" stroke-miterlimit="1" d="M356.713,240.135
			c0.549,1.146,1.061,2.333,1.531,3.564c-5.445,6.575-9.877,18.756-12.403,33.991l0,0h-27.198l0,0
			c-2.832-17.08-8.057-30.322-14.421-36.133c0.671-1.003,1.364-1.973,2.074-2.909c8.778,6.086,15.548,15.144,18.993,25.793l0,0
			h14.375l0,0C342.861,254.617,348.889,246.155,356.713,240.135L356.713,240.135z"/>
		<path fill="#219730" stroke="#000000" stroke-width="4.0803" stroke-miterlimit="1" d="M332.651,325.431
			c-0.058,0.042-0.111,0.088-0.169,0.129c-8.16-6.346-14.037-23.556-14.037-43.706c0-20.29,5.957-37.599,14.206-43.837
			c0.056-0.042,0.111-0.085,0.169-0.127c8.16,6.346,14.037,23.559,14.037,43.709C346.857,301.885,340.898,319.192,332.651,325.431
			L332.651,325.431z"/>
		<path fill="#219730" stroke="#000000" stroke-width="4.0803" stroke-miterlimit="1" d="M356.713,160.86
			c5.297,11.048,7.053,26.206,3.916,42.069c-4.076,20.603-15.332,36.968-28.191,43.313c-14.063-5.156-26.756-22.415-31.14-44.581
			c-2.824-14.272-1.685-27.974,2.427-38.625c0.826-1.273,1.686-2.495,2.571-3.662c8.778,6.088,15.548,15.144,18.993,25.794l0,0
			h14.375l0,0C342.861,175.343,348.889,166.881,356.713,160.86L356.713,160.86z"/>
		<path fill="#219730" stroke="#000000" stroke-width="4.0803" stroke-miterlimit="1" d="M356.713,160.86
			c0.549,1.146,1.061,2.335,1.531,3.564c-5.445,6.577-9.877,18.757-12.403,33.993l0,0h-27.198l0,0
			c-2.832-17.08-8.057-30.322-14.421-36.135c0.671-1.003,1.364-1.973,2.074-2.909c8.778,6.088,15.548,15.144,18.993,25.794l0,0
			h14.375l0,0C342.861,175.343,348.889,166.881,356.713,160.86L356.713,160.86z"/>
		<path fill="#219730" stroke="#000000" stroke-width="4.0803" stroke-miterlimit="1" d="M332.651,246.156
			c-0.058,0.044-0.111,0.088-0.169,0.13c-8.16-6.346-14.037-23.558-14.037-43.707c0-20.29,5.957-37.598,14.206-43.838
			c0.056-0.042,0.111-0.085,0.169-0.126c8.16,6.344,14.037,23.558,14.037,43.708C346.857,222.612,340.898,239.918,332.651,246.156
			L332.651,246.156z"/>
		<path fill="#219730" stroke="#000000" stroke-width="4.0803" stroke-miterlimit="1" d="M205.321,482.162
			c-11.754-6.865-19.715-19.879-19.715-34.751c0-5.397,1.052-10.552,2.951-15.257C197.68,438.505,204.537,458.286,205.321,482.162
			L205.321,482.162z"/>
		<path fill="#219730" stroke="#000000" stroke-width="4.0803" stroke-miterlimit="1" d="M158.905,482.163
			c11.752-6.862,19.714-19.878,19.714-34.749c0-5.398-1.052-10.553-2.949-15.256C166.545,438.506,159.687,458.289,158.905,482.163
			L158.905,482.163z"/>
		<path fill="#C49414" stroke="#000000" stroke-width="3.4974" stroke-miterlimit="1" d="M62.537,1.749h119.575h119.575v367.498l0,0
			c-1.064,22.307-17.074,40.398-37.236,42.47l0,0h-54.697l0,0c-1.207-0.036-2.451,0.076-3.721,0.349
			c-5.376,1.154-10.475,4.998-14.475,10.4c-2.532,3.42-4.678,7.529-6.183,12.055c-0.854,2.383-1.607,5.152-2.188,8.201
			c-0.183,0.958-0.344,1.914-0.482,2.862l0,0h-1.185l0,0c-0.139-0.949-0.299-1.904-0.482-2.862
			c-0.583-3.049-1.334-5.818-2.188-8.201c-1.506-4.525-3.652-8.635-6.183-12.055c-4-5.402-9.098-9.246-14.476-10.4
			c-1.269-0.272-2.514-0.385-3.721-0.349l0,0H99.768l0,0c-20.136-2.068-36.129-20.12-37.23-42.387l0,0V1.749L62.537,1.749z"/>
		<path fill="#FFFFFF" stroke="#000000" stroke-width="3.4974" stroke-miterlimit="1" d="M301.688,79.862v24.835H62.537V79.862
			H301.688L301.688,79.862z"/>
		<path fill="#26ADCD" stroke="#000000" stroke-width="3.4974" stroke-miterlimit="1" d="M31.812,42.909h300.6v36.952h-300.6V42.909
			L31.812,42.909z"/>
		<path fill="#26ADCD" stroke="#000000" stroke-width="3.4974" stroke-miterlimit="1" d="M31.812,104.697h300.6v36.954h-300.6
			V104.697L31.812,104.697z"/>
		<path fill="#0E0C67" d="M172.466,345.787H162.3l0,0c-1.617-0.224-2.988-1.188-3.713-2.518l0,0l-43.042-113.785L71.549,345.787
			h-4.718v6.355h2.314h9.168h18.371v-6.355H85.46l0,0c-1.34-0.248-2.357-1.354-2.357-2.668c0-0.053,0.003-0.104,0.006-0.157l0,0
			l10.931-28.894h30.185l10.091,26.678l0,0c0.035,0.217,0.051,0.438,0.051,0.664c0,2.203-1.668,4.041-3.838,4.377l0,0h-8.584v6.355
			h50.521V345.787L172.466,345.787z"/>
		<path fill="#0E0C67" d="M284.862,345.787l-43.995-116.302l-43.164,114.107l0,0c-0.715,1.166-1.944,2-3.377,2.195l0,0h-7.509v6.355
			h7.649h10.723h21.242v-6.355h-8.871l0,0c-2.955-0.24-5.277-2.301-5.277-4.795c0-0.219,0.018-0.433,0.052-0.644l0,0l9.942-26.28
			h34.264l10.637,28.114l0,0c0.023,0.147,0.035,0.299,0.035,0.452c0,1.529-1.177,2.816-2.746,3.152l0,0h-12.774v6.355h40.761v-6.355
			H284.862L284.862,345.787z"/>
		<path fill="#0E0C67" d="M248.195,183.778l7.716,40.159l0,0c0.92,6.48-0.067,11.716-2.544,12.287
			c-2.887,0.665-6.727-5.244-8.563-13.16c-1.354-4.389-3.734-7.607-5.833-7.966l0,0h-47.561v30.501h12.683l0,0
			c3.047-0.176,5.438-1.639,5.438-3.41c0-0.081-0.004-0.163-0.015-0.24c0.202-5.124,2.065-9.161,4.324-9.161
			c2.121,0,3.894,3.561,4.269,8.241l0,0v24.871l0,0c-0.373,4.682-2.147,8.248-4.269,8.248c-2.286,0-4.166-4.137-4.33-9.346
			c0.028-0.152,0.044-0.307,0.044-0.463c0-1.808-1.972-3.303-4.484-3.489l0,0h-13.659v89.408l0,0
			c-0.022,0.475-0.035,0.954-0.035,1.436c0,14.948,11.034,27.142,24.563,27.142c2.819,0,5.53-0.531,8.056-1.506
			c-0.947,10.047-12.396,18.029-26.301,18.029c-5.803,0-11.178-1.393-15.54-3.742l0,0v-0.067l0,0
			c-12.521-7.177-23.849-15.136-33.776-23.751c10.554-2.248,18.393-9.768,18.614-18.711l0,0h0.021V219.161l0,0
			c0.003-0.057,0.004-0.114,0.004-0.173c0-2.229-1.648-4.047-3.668-4.047c-0.053,0-0.107,0.001-0.16,0.003
			c-26.597-2.934-46.603-14.829-46.603-28.986c0-2.164,0.467-4.273,1.352-6.305c8.588,6.57,40.961,11.479,79.398,11.479
			c12.438,0,24.239-0.514,34.805-1.433c2.643-0.473,4.803-1.812,5.828-3.557c1.172-3.029,3.775-5.29,6.341-5.29
			C246.146,180.852,247.549,182.011,248.195,183.778L248.195,183.778z"/>
		<path fill="#FFFFFF" stroke="#000000" stroke-width="4.0803" stroke-miterlimit="1" d="M174.839,427.405h14.549v35.064h-14.549
			V427.405L174.839,427.405z"/>
		<polygon fill="#C49414" points="98.622,301.957 119.644,301.957 109.132,274.172 98.622,301.957 "/>
		<polygon fill="#C49414" points="226.859,301.957 251.961,301.957 239.41,268.78 226.859,301.957 "/>
	</g>
</svg>
