<?xml version="1.0" encoding="UTF-8"?>
<svg width="234pt" version="1.1" xmlns="http://www.w3.org/2000/svg" height="274pt" viewBox="0 0 234 274" xmlns:xlink="http://www.w3.org/1999/xlink">
 <defs>
  <clipPath id="Clip0">
   <path d="M0 0 L221.381 0 L221.381 270 L0 270 L0 0 Z" transform="translate(6, 2)"/>
  </clipPath>
  <clipPath id="Clip1">
   <path d="M0 0 L221.381 0 L221.381 221.35 L0 221.35 L0 0 Z" transform="translate(6, 50.6496)"/>
  </clipPath>
  <clipPath id="Clip2">
   <path d="M0 0 L168.883 0 L168.883 168.926 L0 168.926 L0 0 Z" transform="translate(32.3104, 76.9269)"/>
  </clipPath>
  <clipPath id="Clip3">
   <path d="M0 0 L141.609 0 L141.609 155.997 L0 155.997 L0 0 Z" transform="translate(45.4691, 83.6182)"/>
  </clipPath>
  <clipPath id="Clip4">
   <path d="M0 0 L213.372 0 L213.372 41.8914 L0 41.8914 L0 0 Z" transform="translate(10.3685, 2)"/>
  </clipPath>
 </defs>
 <g id="Background">
  <g id="svg2" clip-path="url(#Clip0)">
   <g id="Group55" clip-path="url(#Clip1)">
    <path style="fill:#ffffff; fill-rule:nonzero;stroke:none;" d="M0 110.674 C0 49.6495 49.6553 0 110.687 0 C171.722 0 221.381 49.6495 221.381 110.674 C221.381 171.704 171.723 221.35 110.687 221.35 C49.6557 221.35 0 171.704 0 110.674 Z" transform="translate(6, 50.6496)"/>
    <g id="Group54" clip-path="url(#Clip2)">
     <path style="fill:#ffffff; fill-rule:nonzero;stroke:none;" d="M168.883 84.4327 C168.883 131.118 131.078 168.926 84.4365 168.926 C37.8024 168.926 0 131.118 0 84.4327 C0 37.8077 37.8024 0.000331513 84.4365 0.000331513 C131.077 0 168.883 37.8077 168.883 84.4327 Z" transform="translate(32.3104, 76.9269)"/>
     <g id="Group53" clip-path="url(#Clip3)">
      <path style="fill:#231f20; fill-rule:nonzero;stroke:none;" d="M10.6541 4.80294 C12.7744 6.74064 13.3274 9.05591 11.1379 11.4442 L9.99799 12.6794 L2.85899 6.13729 L3.99555 4.89843 C6.18512 2.51386 8.53387 2.86493 10.6541 4.80294 Z M12.0686 3.2591 C8.50735 0 5.0025 0.847676 2.5208 3.55381 L0 6.29971 L10.0805 15.5413 L12.6087 12.7917 C15.0171 10.1556 15.6231 6.51854 12.0686 3.2591 Z" transform="translate(57.0503, 105.881)"/>
      <path style="fill:#231f20; fill-rule:nonzero;stroke:none;" d="M8.00371 16.2441 L0 5.15733 L7.14266 0 L8.31538 1.61314 L2.83279 5.56511 L4.81052 8.31069 L7.9941 6.01196 L9.15355 7.62843 L5.97325 9.92384 L8.50105 13.4282 L14.2157 9.30425 L15.3884 10.9207 L8.00371 16.2441 Z" transform="translate(68.5625, 95.5523)"/>
      <path style="fill:#231f20; fill-rule:nonzero;stroke:none;" d="M10.306 14.8266 C7.21195 16.1911 4.721 14.8995 3.20347 11.4478 L0 4.19694 L1.87494 3.36883 L5.0519 10.5663 C6.09228 12.928 7.63568 13.7594 9.51458 12.9379 C11.482 12.0704 11.87 10.4403 10.8627 8.15154 L7.63303 0.827787 L9.50131 0 L12.7247 7.28697 C14.2684 10.7921 13.4203 13.4521 10.306 14.8266 Z" transform="translate(81.0515, 88.2219)"/>
      <path style="fill:#231f20; fill-rule:nonzero;stroke:none;" d="M6.32106 2.78537 L8.7159 14.1997 L6.71163 14.6204 L4.31319 3.20937 L0.414111 4.02754 L0 2.0567 L9.81265 0 L10.2234 1.96753 L6.32106 2.78537 Z" transform="translate(95.9425, 84.4499)"/>
      <path style="fill:#231f20; fill-rule:nonzero;stroke:none;" d="M4.89971 14.1403 C2.9117 14.1735 1.17271 13.3453 0 12.0203 L1.43463 10.5663 C2.37227 11.5499 3.73064 12.1463 5.02239 12.1231 C6.93344 12.0899 7.84125 11.4077 7.81804 10.0793 C7.79848 9.02578 6.98649 8.50594 4.68785 7.86976 C1.77912 7.06487 0.374656 6.36934 0.334869 3.92113 C0.291767 1.56275 2.25622 0.082215 4.77405 0.0328197 C6.63571 0 8.05046 0.659045 9.28613 1.80509 L7.87109 3.3022 C6.98649 2.43761 6.00276 2.02388 4.65801 2.04676 C3.06124 2.07659 2.38818 2.87156 2.40509 3.78919 C2.42167 4.74628 3.06124 5.2001 5.42921 5.8628 C8.13965 6.63455 9.83586 7.46269 9.88493 9.90063 C9.92836 12.3651 8.3976 14.0707 4.89971 14.1403 Z" transform="translate(110.271, 83.6182)"/>
      <path style="fill:#231f20; fill-rule:nonzero;stroke:none;" d="M5.16098 14.5113 C1.68296 13.8688 0 10.5994 0.754948 6.5255 C1.50691 2.45452 4.23693 0 7.71493 0.642471 C9.90482 1.04659 11.2032 2.19925 11.8262 3.99771 L9.83552 4.78305 C9.3415 3.56078 8.72883 2.91466 7.34358 2.65641 C5.00183 2.22611 3.38516 3.89196 2.8255 6.90638 C2.26849 9.92716 3.18623 12.0638 5.5283 12.494 C6.9361 12.7526 7.90358 12.3319 8.79779 11.3679 L10.2619 12.7887 C8.99407 14.2663 7.19836 14.8859 5.16098 14.5113 Z" transform="translate(123.317, 84.3601)"/>
      <path style="fill:#231f20; fill-rule:nonzero;stroke:none;" d="M7.68608 15.8397 L10.058 10.2252 L4.26345 7.77432 L1.8882 13.3885 L0 12.5869 L5.32676 0 L7.22157 0.794635 L5.06184 5.88933 L10.8557 8.3402 L13.0121 3.24915 L14.9004 4.04711 L9.57028 16.6409 L7.68608 15.8397 Z" transform="translate(136.17, 87.8317)"/>
      <path style="fill:#231f20; fill-rule:nonzero;stroke:none;" d="M0 11.1991 L7.84788 0 L15.0631 5.05161 L13.9203 6.68793 L8.38434 2.80924 L6.44672 5.57505 L9.6598 7.83064 L8.51696 9.46368 L5.30057 7.20773 L2.82218 10.742 L8.60317 14.7898 L7.45366 16.4195 L0 11.1991 Z" transform="translate(148.981, 95.185)"/>
      <path style="fill:#231f20; fill-rule:nonzero;stroke:none;" d="M12.6451 8.90377 C11.5616 9.91721 10.3955 9.70203 9.45854 8.70852 L6.73153 5.79351 L9.93897 2.78901 L12.6654 5.69769 C13.6126 6.7108 13.6849 7.93011 12.6451 8.90377 Z M14.102 10.371 C16.156 8.4499 15.706 6.11441 14.0794 4.37565 L9.97445 0 L0 9.35758 L1.37164 10.8216 L5.32377 7.11825 L7.4341 9.37416 L5.34301 15.058 L6.96328 16.7805 L9.12603 10.921 C10.7334 11.951 12.5059 11.8681 14.102 10.371 Z" transform="translate(158.833, 104.307)"/>
      <path style="fill:#231f20; fill-rule:nonzero;stroke:none;" d="M11.3196 2.7426 L8.136 4.3657 L9.92505 7.86711 L8.13302 8.78142 L6.34394 5.28001 L0.934316 8.04947 L0 6.22416 L12.1776 0 L16.1865 7.84025 L14.3974 8.75788 L11.3196 2.7426 Z" transform="translate(45.4691, 187.375)"/>
      <path style="fill:#231f20; fill-rule:nonzero;stroke:none;" d="M2.08713 12.6031 C0 9.94341 0.639234 7.20773 3.60763 4.8855 L9.85907 0 L11.1243 1.61612 L4.91927 6.46881 C2.88849 8.05212 2.45781 9.75475 3.72335 11.3676 C5.04195 13.0606 6.71793 13.0437 8.68937 11.5001 L14.9965 6.56794 L16.2587 8.191 L9.98108 13.0934 C6.9666 15.4555 4.17393 15.2801 2.08713 12.6031 Z" transform="translate(52.9427, 197.061)"/>
      <path style="fill:#231f20; fill-rule:nonzero;stroke:none;" d="M2.25291 12.4486 C0.742349 11.1431 0 9.37449 0.00696262 7.60257 L2.05066 7.4733 C2.09376 8.82452 2.70681 10.1827 3.68389 11.0304 C5.13147 12.2726 6.25773 12.3757 7.13238 11.3686 C7.81141 10.5669 7.55644 9.64604 6.27099 7.63871 C4.64441 5.09467 4.06452 3.64697 5.66457 1.79547 C7.20499 0 9.65682 0.212168 11.5682 1.85813 C12.9697 3.06715 13.589 4.50491 13.7449 6.18073 L11.6876 6.35011 C11.6147 5.12119 11.1545 4.15715 10.1339 3.27899 C8.92478 2.22909 7.89131 2.37794 7.29153 3.07047 C6.66853 3.79946 6.83762 4.56128 8.16286 6.63455 C9.67339 9.01948 10.3789 10.7652 8.78586 12.6167 C7.1788 14.4825 4.8964 14.7308 2.25291 12.4486 Z" transform="translate(63.2056, 208.203)"/>
      <path style="fill:#231f20; fill-rule:nonzero;stroke:none;" d="M3.0808 13.3722 C1.35804 12.3621 0.308013 10.7553 0 9.00655 L1.98435 8.51622 C2.26882 9.84493 3.11693 11.0639 4.2303 11.7193 C5.87976 12.6834 7.00606 12.5739 7.68177 11.4312 C8.21193 10.5239 7.78787 9.66224 6.16821 7.91353 C4.10729 5.70764 3.27608 4.38559 4.51179 2.27915 C5.71099 0.238689 8.15921 0 10.3322 1.27533 C11.9323 2.21285 12.8 3.51469 13.2538 5.13777 L11.2596 5.67448 C10.9681 4.47839 10.3418 3.61746 9.17606 2.93488 C7.79483 2.11969 6.81408 2.4512 6.3436 3.23954 C5.86318 4.06434 6.16821 4.79001 7.8512 6.58514 C9.75927 8.66509 10.7728 10.252 9.53712 12.3588 C8.28852 14.4821 6.09195 15.1412 3.0808 13.3722 Z" transform="translate(73.8664, 215.554)"/>
      <path style="fill:#231f20; fill-rule:nonzero;stroke:none;" d="M10.3823 5.94536 C10.0842 6.79369 9.29243 7.40301 8.01731 6.9591 L4.55191 5.74676 L5.72127 2.41109 L9.18302 3.62642 C10.4784 4.07363 10.7201 4.98463 10.3823 5.94536 Z M10.9323 12.2822 C11.5619 10.4967 10.7271 9.15206 9.80933 8.51588 C10.9124 8.38662 11.9031 7.81738 12.3537 6.5086 C13.1219 4.33917 12.0722 2.64613 9.82591 1.86144 L4.51212 0 L0 12.9051 L5.12484 14.7006 C7.94436 15.6872 10.0215 14.9055 10.9323 12.2822 Z M8.98114 11.6593 C8.53752 12.9376 7.60651 13.5804 5.88705 12.984 L2.43858 11.7717 L3.94283 7.4985 L7.44437 8.72377 C8.90157 9.23495 9.44827 10.3342 8.98114 11.6593 Z" transform="translate(86.3222, 220.665)"/>
      <path style="fill:#231f20; fill-rule:nonzero;stroke:none;" d="M8.71954 8.94985 L4.54196 8.37402 L6.05283 5.42917 C6.53955 4.4754 7.23185 2.98792 7.46791 2.42767 C7.54384 3.0277 7.86844 4.68031 8.06737 5.68376 L8.71954 8.94985 Z M11.9595 14.5249 L8.88798 0.301345 L6.74147 0 L0 12.8786 L2.11034 13.17 L3.67395 10.1095 L9.09056 10.8547 L9.78944 14.2272 L11.9595 14.5249 Z" transform="translate(99.9046, 225.08)"/>
      <path style="fill:#231f20; fill-rule:nonzero;stroke:none;" d="M0.735386 13.7598 L0 0.102769 L2.04701 0 L2.68028 11.6397 L9.48407 11.2691 L9.59349 13.2764 L0.735386 13.7598 Z" transform="translate(116.084, 225.855)"/>
      <path style="fill:#231f20; fill-rule:nonzero;stroke:none;" d="M3.13351 13.7793 L0 0.467102 L1.99695 0 L4.66696 11.355 L11.3033 9.79487 L11.7668 11.7495 L3.13351 13.7793 Z" transform="translate(127.414, 224.587)"/>
      <path style="fill:#231f20; fill-rule:nonzero;stroke:none;" d="M0.639897 3.44508 L0 1.56341 L4.62817 0 L5.26741 1.88498 L0.639897 3.44508 Z" transform="translate(136.58, 226.938)"/>
      <path style="fill:#231f20; fill-rule:nonzero;stroke:none;" d="M8.35516 3.48817 C8.76563 4.27983 8.67644 5.28366 7.4835 5.90292 L4.22433 7.60854 L2.58778 4.47507 L5.84362 2.77575 C7.04949 2.14323 7.88104 2.59011 8.35516 3.48817 Z M13.3599 7.41661 C12.4827 5.73051 10.9323 5.42552 9.83917 5.66093 C10.4953 4.76978 10.7569 3.65692 10.1177 2.43496 C9.04712 0.391516 7.09922 0 4.98559 1.10294 L0 3.71327 L6.33764 15.8267 L11.1541 13.3059 C13.8009 11.9212 14.6454 9.87079 13.3599 7.41661 Z M11.5716 8.41679 C12.1979 9.60891 12.0321 10.7287 10.422 11.5767 L7.18476 13.2661 L5.08472 9.25153 L8.37439 7.52896 C9.746 6.8169 10.9154 7.17461 11.5716 8.41679 Z" transform="translate(142.001, 217.094)"/>
      <path style="fill:#231f20; fill-rule:nonzero;stroke:none;" d="M12.7778 14.0813 C10.1571 16.2179 7.41056 15.6351 5.02239 12.7201 L0 6.58187 L1.59046 5.28034 L6.57271 11.3749 C8.20928 13.3722 9.91543 13.7631 11.5052 12.4645 C13.165 11.1034 13.1086 9.43384 11.5285 7.49916 L6.45666 1.29854 L8.04317 0 L13.0884 6.17078 C15.52 9.13283 15.4043 11.9248 12.7778 14.0813 Z" transform="translate(153.145, 208.081)"/>
      <path style="fill:#231f20; fill-rule:nonzero;stroke:none;" d="M15.9484 10.0899 L5.84428 8.96378 C5.23823 8.90111 4.30689 8.7549 3.89973 8.69857 C4.29097 9.02014 5.78095 10.1894 6.37742 10.6661 L11.8998 15.1117 L10.6578 16.6622 L0 8.09588 L1.30864 6.46616 L11.0616 7.64899 C11.7241 7.72193 12.8838 7.90723 13.2814 7.97354 C12.8838 7.65495 11.3531 6.44659 10.7573 5.9689 L5.26476 1.55048 L6.51402 0 L17.1645 8.56595 L15.9484 10.0899 Z" transform="translate(163.361, 197.796)"/>
      <path style="fill:#231f20; fill-rule:nonzero;stroke:none;" d="M9.86238 4.05407 C12.426 5.35925 13.5755 7.43584 12.108 10.3276 L11.3395 11.8217 L2.71244 7.42257 L3.47137 5.92248 C4.94613 3.03732 7.31109 2.75222 9.86238 4.05407 Z M10.8196 2.18931 C6.51336 0 3.3656 1.74873 1.6959 5.01779 L0 8.34352 L12.1879 14.554 L13.8805 11.2283 C15.5071 8.04582 15.1129 4.38228 10.8196 2.18931 Z" transform="translate(171.571, 186.756)"/>
     </g>
     <path style="fill:#999999; fill-rule:nonzero;stroke:none;" d="M0 59.8146 C0 92.8261 26.834 119.676 59.8158 119.676 C92.8017 119.676 119.645 92.8261 119.645 59.8146 C119.645 26.8369 92.8021 0 59.8158 0 C26.8336 0 0 26.8369 0 59.8146 Z M3.42528 59.8146 C3.42528 28.7315 28.7218 3.42485 59.8154 3.42485 C90.9093 3.42485 116.216 28.7318 116.216 59.8146 C116.216 90.9383 90.9101 116.245 59.8154 116.245 C28.7215 116.245 3.42528 90.9383 3.42528 59.8146 Z" transform="translate(56.9313, 101.551)"/>
    </g>
    <path style="fill:#666666; fill-rule:nonzero;stroke:none;" d="M106.639 0 C47.7376 0 0 47.738 0 106.616 C0 130.942 8.15291 153.36 21.8713 171.3 L30.8289 166.696 C17.7268 150.197 9.88559 129.326 9.88559 106.619 C9.88559 53.1971 53.1971 9.8877 106.639 9.8877 C160.068 9.8877 203.389 53.1971 203.389 106.619 C203.389 129.322 195.557 150.187 182.459 166.676 L191.443 171.247 C205.142 153.32 213.271 130.919 213.271 106.616 C213.271 47.738 165.528 0 106.639 0 Z" transform="translate(10.0715, 54.6745)"/>
    <path style="fill:#161413; fill-rule:nonzero;stroke:none;" d="M8.81536 0 L0 5.07776 C11.2009 17.3205 25.2236 26.939 41.0391 32.9119 L45.5013 24.0509 C31.4518 18.9134 18.9526 10.5994 8.81536 0 Z" transform="translate(37.9787, 228.128)"/>
    <path style="fill:#ffc905; fill-rule:nonzero;stroke:none;" d="M45.6538 5.09467 L36.8588 0 C26.6785 10.6399 14.1093 18.9705 0 24.0976 L4.58871 32.9219 C20.4104 26.9533 34.4464 17.3441 45.6538 5.09467 Z" transform="translate(149.749, 228.144)"/>
    <path style="fill:#d71822; fill-rule:nonzero;stroke:none;" d="M29.3279 3.51436 C20.3799 3.51436 11.7271 2.27915 3.50817 0 L0 9.28137 C9.32194 11.9411 19.1512 13.3987 29.3286 13.3987 C39.4522 13.3987 49.235 11.9514 58.5108 9.32149 L54.9797 0.0500585 C46.8064 2.29241 38.2159 3.51436 29.3279 3.51436 Z" transform="translate(87.3828, 254.52)"/>
    <path style="fill:#999999; fill-rule:nonzero;stroke:none;" d="M3.98196 86.4702 C3.98196 40.9842 40.9926 3.97815 86.4838 3.97815 C131.978 3.97815 168.992 40.9842 168.992 86.4702 C168.992 131.962 131.978 168.965 86.4838 168.965 C40.9926 168.965 3.98196 131.963 3.98196 86.4702 Z M0 86.4702 C0 134.155 38.7961 172.947 86.4838 172.947 C134.178 172.947 172.971 134.155 172.971 86.4702 C172.971 38.7913 134.178 0 86.4838 0 C38.7961 0.000331513 0 38.7916 0 86.4702 Z" transform="translate(30.2034, 74.8533)"/>
    <path style="fill:#161413; fill-rule:nonzero;stroke:none;" d="M95.9879 51.5999 C95.9879 51.5999 86.8916 21.4376 85.417 16.6015 C84.1551 12.4609 80.9153 12.7258 80.9153 12.7258 C80.9153 12.7258 79.8481 12.7788 71.2782 12.6794 C63.0129 12.5932 62.2176 14.6538 68.0948 22.4179 C69.9598 24.8827 69.2346 25.2334 64.4535 26.0682 C59.6708 26.8963 57.3872 22.2259 57.1099 20.1725 C56.8314 18.1119 55.7746 10.8053 55.6482 10.4473 C55.3407 9.57277 57.5766 8.91736 58.6666 9.61951 C60.6709 10.8978 60.3899 11.3086 60.3899 7.51272 C60.3899 3.70996 55.3676 4.02158 55.3676 4.02158 C55.0393 0 49.0369 0.689544 47.1118 0.815188 C45.1871 0.947462 43.2558 2.34545 38.1277 2.34545 C33.0025 2.34545 33.8971 8.92366 33.8971 8.92366 C33.8971 8.92366 36.2789 8.21487 38.0906 8.26129 C39.8829 8.30771 44.5315 8.21487 43.1261 11.0636 C43.1261 11.0636 39.4058 9.74513 37.6532 9.74513 C35.9006 9.74513 31.6968 9.70535 30.6468 8.17509 C29.5965 6.64482 29.2022 6.1615 29.2022 6.1615 C29.2022 6.1615 28.0196 10.9707 30.7364 11.4544 C33.4524 11.9381 36.2554 11.4544 37.5674 11.3682 C38.879 11.2757 41.4666 11.2757 42.1654 11.3682 C42.8646 11.4544 42.119 12.1963 40.7609 12.2892 C39.4061 12.3754 36.2948 12.1566 37.13 13.5542 C37.9586 14.9588 39.4058 15.7472 40.2775 15.9192 C41.1551 16.0979 43.5633 15.7008 42.5098 18.2842 L41.9205 20.0068 C41.2446 21.9743 39.1406 26.6118 34.3573 25.7701 C29.5736 24.9483 28.8544 24.5976 30.7098 22.1397 C36.5899 14.3691 35.8015 12.3087 27.5295 12.3946 C18.9626 12.494 17.8956 12.4347 17.8956 12.4347 C17.8956 12.4347 14.6557 12.1695 13.3938 16.3101 C11.916 21.1462 0.510263 51.7727 0.510263 51.7727 C0.510263 51.7727 0 54.7343 2.48798 55.5624 C5.75443 56.6424 6.81806 53.4823 6.81806 53.4823 L15.0933 31.5544 C15.7097 31.9383 16.3158 32.3161 16.9288 32.6742 L6.59294 61.3323 C6.59294 61.3323 5.53626 64.4925 8.87239 65.6587 C11.854 66.6923 13.1955 62.9756 13.1955 62.9756 L23.1471 35.86 C23.6769 36.0855 24.207 36.3105 24.7239 36.5224 L14.2425 66.4735 C14.2425 66.4735 13.2784 69.6863 16.3761 70.7336 C19.4669 71.7867 20.7188 68.1098 20.7188 68.1098 L31.121 38.6693 C31.7406 38.835 32.3533 38.9875 32.9531 39.1264 C32.9461 39.1596 32.9432 39.1861 32.9432 39.1861 L27.6559 56.8476 C27.6559 56.8476 26.7813 59.8813 29.7559 61.048 C32.7376 62.2138 34.3675 58.2459 34.3675 58.2459 L39.2105 42.6578 C39.2105 42.6578 41.1985 50.773 37.6933 56.4373 C34.1918 62.1011 30.7599 65.8838 26.2644 67.9838 C26.2644 67.9838 26.3837 68.6328 28.0169 68.7393 C29.6502 68.8653 29.7659 69.276 30.0013 69.5607 L27.6754 73.1246 C27.6754 73.1246 27.321 74.4098 25.7441 73.7143 C24.1669 73.0118 22.1862 71.9583 22.1862 71.9583 C22.1862 71.9583 20.1386 71.4411 19.6714 72.4287 C19.2046 73.4225 19.2046 73.4225 19.2046 73.4225 C19.2046 73.4225 16.8724 73.6542 16.574 74.9921 C16.2856 76.3374 16.6964 76.5093 16.6964 76.5093 C16.6964 76.5093 17.753 75.7675 18.2102 76.0522 C18.8329 76.4231 18.3293 77.5492 19.0551 77.8144 C20.3604 78.2848 21.3142 77.5558 22.0102 76.9263 C22.4674 76.5023 23.5871 76.9793 23.6401 77.3308 C23.6995 77.6818 23.173 78.6089 21.8315 78.7884 C20.4897 78.967 17.571 79.4834 17.7401 81.0073 C17.8923 82.2925 17.9125 82.4048 17.9188 82.4115 C17.9026 82.438 16.8257 84.7506 19.0289 85.6181 C19.0289 85.6181 19.3833 84.2201 19.8471 84.2201 C20.3143 84.2201 20.7181 85.0353 21.54 85.0353 C22.3583 85.0353 23.1173 84.3329 23.5874 82.9353 C24.0479 81.5312 24.8662 79.6629 24.8662 79.6629 C24.8662 79.6629 25.4494 78.967 25.8005 79.0797 C26.1516 79.1991 26.3303 79.8415 26.2113 80.2464 C26.0953 80.6633 25.8602 81.5909 25.8005 81.8288 C25.7441 82.0546 23.7631 84.5123 25.3367 85.6848 C26.9099 86.844 26.7382 87.314 27.142 87.5991 C27.5527 87.8971 29.1857 88.4736 29.7725 88.1292 C29.7725 88.1292 29.0733 86.844 28.8946 86.6123 C28.7188 86.3802 28.7785 85.9165 29.8853 85.9165 C30.9983 85.9165 30.9983 84.5123 30.2994 83.4588 C29.5968 82.4123 29.3551 81.3982 29.1267 80.7164 C28.6727 79.3384 29.9118 78.8414 30.4748 80.2464 C31.0149 81.6041 30.7931 82.9221 31.9923 82.7302 C32.8835 82.5914 33.0954 82.0016 33.5061 82.0551 C33.9166 82.1143 35.073 82.9221 34.4534 84.4195 C34.4534 84.4195 37.1831 83.976 36.2557 81.4781 C35.6397 79.8224 34.8837 80.6505 35.3777 79.0271 C35.7587 77.7485 34.6192 76.8082 33.2741 76.8608 C32.0151 76.9134 30.3786 76.5761 31.1773 75.0526 C32.0151 73.4358 33.1613 71.495 33.1613 71.495 L35.0827 73.7143 C35.0827 73.7143 36.8983 69.1629 38.5308 67.1159 C40.1644 65.0756 42.1517 62.5582 43.0826 63.0883 C44.0167 63.6118 44.3052 70.2098 43.5501 73.5353 C42.7912 76.8608 40.045 84.1613 39.4055 85.1551 C38.7629 86.1423 43.0229 84.5127 43.5501 84.3333 C44.0735 84.1613 45.127 82.8761 45.355 84.8638 C45.5941 86.8448 46.3691 90.6204 48.1745 92.5555 L48.218 92.5086 C50.0299 90.5806 50.9081 86.6724 51.1398 84.6847 C51.3715 82.7037 52.4213 83.9889 52.9518 84.1613 C53.4723 84.3333 57.7362 85.9699 57.0896 84.9761 C56.4497 83.9889 53.7073 76.6884 52.9518 73.3629 C52.19 70.0373 52.4818 63.4323 53.4193 62.9089 C54.3501 62.3854 56.3312 64.9032 57.967 66.9369 C59.6003 68.9838 61.4131 73.5349 61.4131 73.5349 L63.3378 71.3155 C63.3378 71.3155 64.4838 73.2568 65.3255 74.8793 C66.1171 76.3966 64.4838 76.741 63.2251 76.688 C61.8769 76.6349 60.7372 77.5757 61.1251 78.8472 C61.6121 80.4706 60.8598 79.6492 60.2469 81.3053 C59.3198 83.8032 62.0427 84.2467 62.0427 84.2467 C61.4235 82.743 62.5794 81.9415 62.9905 81.8818 C63.4008 81.8284 63.6134 82.4185 64.5078 82.5574 C65.7068 82.743 65.488 81.4247 66.0284 80.0732 C66.5879 78.6686 67.8271 79.1589 67.37 80.5432 C67.1416 81.2257 66.9033 82.2329 66.2008 83.286 C65.5021 84.332 65.5021 85.737 66.6119 85.737 C67.721 85.737 67.7811 86.2008 67.605 86.4329 C67.4263 86.6716 66.7272 87.9568 66.7272 87.9568 C67.3107 88.3078 68.944 87.7181 69.3585 87.4263 C69.7659 87.1349 69.5902 86.6716 71.1671 85.5053 C72.7404 84.3329 70.7531 81.8818 70.6996 81.6497 C70.6366 81.4114 70.4016 80.4839 70.2889 80.0732 C70.1729 79.6625 70.3453 79.0267 70.6996 78.9069 C71.0478 78.788 71.6309 79.4826 71.6309 79.4826 C71.6309 79.4826 72.4494 81.358 72.9161 82.7555 C73.3803 84.1596 74.1453 84.8621 74.9568 84.8621 C75.7787 84.8621 76.1832 84.0403 76.6532 84.0403 C77.1198 84.0403 77.4713 85.4448 77.4713 85.4448 C79.6745 84.5703 78.5948 82.2652 78.5812 82.2382 C78.5853 82.2316 78.6044 82.1123 78.7565 80.8341 C78.9256 79.3106 76.0112 78.7867 74.6692 78.6081 C73.3239 78.4353 72.8042 77.5019 72.8564 77.1571 C72.9161 76.7995 74.0293 76.3291 74.4931 76.7464 C75.1893 77.3755 76.1334 78.105 77.4414 77.6342 C78.1742 77.376 77.6669 76.2495 78.2902 75.8728 C78.7507 75.5947 79.8071 76.3361 79.8071 76.3361 C79.8071 76.3361 80.212 76.1575 79.9269 74.8192 C79.6347 73.4739 77.2964 73.2418 77.2964 73.2418 C77.2964 73.2418 77.2964 73.2418 76.8289 72.2484 C76.3589 71.2612 74.3215 71.7847 74.3215 71.7847 C74.3215 71.7847 72.3301 72.8382 70.7531 73.5336 C69.1832 74.2357 68.8317 72.9505 68.8317 72.9505 L66.963 68.9229 C67.1922 68.6311 67.3107 68.2204 68.9445 68.1077 C70.577 67.9887 70.7 67.3459 70.7 67.3459 C66.2016 65.2459 63.9251 62.1521 60.4238 56.4878 C56.9189 50.8306 58.9037 42.7145 58.9037 42.7145 L63.7498 58.3027 C63.7498 58.3027 65.3864 62.271 68.3651 61.0986 C71.3395 59.9323 70.4651 56.8981 70.4651 56.8981 L65.0619 38.7995 C65.0619 38.7995 65.0586 38.7929 65.0516 38.7598 C65.6446 38.6076 66.2472 38.4352 66.8569 38.2496 L75.7783 67.9349 C75.7783 67.9349 77.0303 71.6118 80.1279 70.5583 C83.2188 69.5122 82.2577 66.2924 82.2577 66.2924 L73.1876 35.9177 C73.7044 35.6992 74.2208 35.4606 74.7413 35.2159 C74.7479 35.2292 74.7513 35.2421 74.7513 35.2421 L83.305 62.7945 C83.305 62.7945 84.6437 66.5175 87.6248 65.4772 C90.9615 64.318 89.9043 61.1582 89.9043 61.1582 L80.8838 31.8567 C80.8838 31.8567 80.8805 31.8567 80.8805 31.8504 C81.4562 31.4861 82.0364 31.1214 82.6129 30.7309 C82.7853 30.9096 82.835 31.1085 82.835 31.1085 L89.6821 53.3078 C89.6821 53.3078 90.7423 56.4617 94.0156 55.3751 C96.4985 54.5615 95.9879 51.5999 95.9879 51.5999 Z M4.79395 52.11 C4.79395 52.11 4.25086 53.8855 3.22701 53.3952 C2.21345 52.9049 2.97172 51.4411 2.97172 51.4411 C2.97172 51.4411 10.8527 31.1695 11.6415 29.1953 C12.2012 29.606 12.7678 30.0035 13.3245 30.3874 L4.79395 52.11 Z M11.1051 61.7032 C11.1051 61.7032 10.6014 63.492 9.57459 63.0278 C8.54448 62.5707 9.26657 61.087 9.26657 61.087 C9.26657 61.087 17.7404 37.6283 19.1021 33.8985 C19.7082 34.2164 20.3113 34.5277 20.9041 34.8194 L11.1051 61.7032 Z M18.5786 67.1482 C18.5786 67.1482 18.0982 68.9436 17.068 68.4861 C16.0343 68.0422 16.7365 66.5514 16.7365 66.5514 C16.7365 66.5514 25.3632 41.828 26.9334 37.3628 C27.573 37.5879 28.2119 37.8064 28.8382 38.0053 L18.5786 67.1482 Z M31.9986 57.4958 C31.9986 57.4958 31.6014 59.3044 30.5444 58.9003 C29.4943 58.4896 30.1369 56.979 30.1369 56.979 C30.1369 56.979 34.2445 43.2131 35.3317 39.6224 C36.0206 39.7546 36.6864 39.8607 37.3326 39.9536 L31.9986 57.4958 Z M46.8897 6.11441 C46.0612 6.07463 45.3123 5.23989 45.3123 5.23989 C45.3123 5.23989 45.7533 4.41145 46.8499 4.4512 C47.9432 4.49762 48.4269 5.23989 48.4269 5.23989 C48.4269 5.23989 47.7244 6.16083 46.8897 6.11441 Z M67.9523 57.0192 C67.9523 57.0192 68.5913 58.5365 67.5449 58.9472 C66.4909 59.3442 66.0873 57.5426 66.0873 57.5426 L60.6808 40.2652 C60.6808 40.2652 60.5581 40.0467 60.7467 39.7152 C61.3166 39.6158 61.903 39.4971 62.5089 39.3711 C62.8542 40.424 67.9523 57.0192 67.9523 57.0192 Z M79.9252 66.4727 C79.9252 66.4727 80.5647 67.99 79.5108 68.4003 C78.4572 68.811 78.0565 66.9961 78.0565 66.9961 L68.9594 37.5756 C69.5856 37.3634 70.2156 37.1314 70.848 36.8864 C71.8385 40.0464 79.9252 66.4727 79.9252 66.4727 Z M87.4478 61.2196 C87.4478 61.2196 88.0906 62.7365 87.0438 63.1472 C85.9935 63.5579 85.5828 61.743 85.5828 61.743 L77.0154 34.0775 C77.6122 33.7665 78.2086 33.435 78.8112 33.0972 C79.4047 34.9587 87.4478 61.2196 87.4478 61.2196 Z M93.1693 53.2232 C92.1261 53.6335 91.7121 51.8191 91.7121 51.8191 L84.7813 29.2089 C85.3445 28.7982 85.9111 28.3675 86.4776 27.9236 C86.4809 27.9369 86.4876 27.9432 86.4876 27.9502 C86.6766 28.4932 93.5804 51.2961 93.5804 51.2961 C93.5804 51.2961 94.2228 52.8125 93.1693 53.2232 Z" transform="translate(68.5058, 115.152)"/>
   </g>
   <g id="_761874112" clip-path="url(#Clip4)">
    <path style="fill:#ffc905; fill-rule:nonzero;stroke:#ffc905; stroke-width:0.796541; stroke-linecap:butt; stroke-linejoin:round; stroke-dasharray:none;" id=" polygon325" d="M43.1522 15.7164 L43.1522 15.7164 L29.7218 25.4074 L34.8618 41.095 L21.5109 31.3107 L8.15026 40.9371 L13.3563 25.313 L0 15.6646 L16.5001 15.7641 L21.5758 0 L26.6466 15.7522 L43.1522 15.7164 Z" transform="translate(180.19, 2.39827)"/>
    <path style="fill:#ffc905; fill-rule:nonzero;stroke:#ffc905; stroke-width:0.796541; stroke-linecap:butt; stroke-linejoin:round; stroke-dasharray:none;" id=" polygon329" d="M34.8237 40.9962 L34.8237 40.9962 L21.5301 31.2978 L8.22917 40.9905 L13.2933 25.3491 L0 15.651 L16.512 15.6408 L21.5755 0 L26.5939 15.657 L43.1149 15.7416 L29.7095 25.3481 L34.8237 40.9962 Z" transform="translate(124.709, 2.43374)"/>
    <path style="fill:#ffc905; fill-rule:nonzero;stroke:#ffc905; stroke-width:0.796541; stroke-linecap:butt; stroke-linejoin:round; stroke-dasharray:none;" id=" polygon333" d="M21.5573 31.2978 L8.24774 40.9736 L8.24774 40.9736 L13.3881 25.3345 L0 15.7051 L16.5206 15.6484 L21.5659 0 L26.6022 15.6497 L43.1141 15.6882 L29.8047 25.3637 L34.9368 41.0223 L21.5573 31.2978 Z" transform="translate(66.1339, 2.43441)"/>
    <path style="fill:#ffc905; fill-rule:nonzero;stroke:#ffc905; stroke-width:0.796541; stroke-linecap:butt; stroke-linejoin:round; stroke-dasharray:none;" id=" polygon3156" d="M8.15026 40.8914 L13.3337 25.2967 L0 15.4939 L16.5163 15.5943 L21.6995 0 L26.6168 15.725 L43.0875 15.7419 L29.7201 25.3594 L34.7213 41.0383 L21.5172 31.2736 L8.15026 40.8914 Z" transform="translate(10.7667, 2.41286)"/>
   </g>
  </g>
 </g>
</svg>
