<svg id="Layer_1" data-name="Layer 1" xmlns="http://www.w3.org/2000/svg" viewBox="0 0 640.15 1062"><defs><style>.cls-1,.cls-6{fill:#029c55;}.cls-2{fill:#ffd200;}.cls-3{fill:#005aff;}.cls-4{fill:#fff;}.cls-5{fill:#1f1960;}.cls-6{fill-rule:evenodd;}</style></defs><title>CBF_2019</title><path class="cls-1" d="M51.76,959.55h57.4q19,0,27.53,7.41t8.57,22v2.16q0,17.31-13.81,24a26.31,26.31,0,0,1,12.81,9.73q4.5,6.59,4.49,17.23v3q0,17.48-10.48,25.2T106.83,1078H51.76Zm62.72,34.11q0-5.32-2.66-7.57t-9.15-2.25H81.54v21.8h20.63q6.83,0,9.57-2.42c1.83-1.6,2.74-4.24,2.74-7.9Zm-32.94,60.06h22.29q7.65,0,10.82-2.41t3.16-9.07v-2.16q0-7-3.24-9.4t-11.23-2.41H81.54Z" transform="translate(-12 -16.06)"/><path class="cls-1" d="M266.5,1078H231.89l-19.46-38.6H196.62V1078H164.68V959.55h49.58a97,97,0,0,1,21.63,2.08,36.54,36.54,0,0,1,14.64,6.57,25.66,25.66,0,0,1,8.23,11.65,51.54,51.54,0,0,1,2.58,17.47v4q0,12.65-5.24,20.47a32.12,32.12,0,0,1-14.89,11.81Zm-37.1-79q-.17-8-3.74-10.81t-12.73-2.83H196.62V1014h16.31q9.15,0,12.73-2.83t3.74-10.82Z" transform="translate(-12 -16.06)"/><path class="cls-1" d="M352.14,1052.06H312.71l-8,26H272.28l41.43-118.46h38.93L394.23,1078H360.29Zm-32.28-24.79h25l-12.48-40.1Z" transform="translate(-12 -16.06)"/><rect class="cls-1" x="497.05" y="943.49" width="32.44" height="118.46"/><polygon class="cls-1" points="581.85 943.49 581.85 1034.67 635.76 1034.67 626.6 1061.95 549.57 1061.95 549.57 943.49 581.85 943.49"/><path class="cls-1" d="M399.23,993.83a41.59,41.59,0,0,1,2.41-14.73,24.81,24.81,0,0,1,7.9-10.81,38.08,38.08,0,0,1,14.14-6.74c5.77-1.56,12.84-2,21.16-2,3,0,38.91-.11,43.89,0l-8.39,26c-9.1-.11-13-.19-19.14-.24s-11.51-.09-16.05-.09q-7.83,0-10.4,1.67c-1.73,1.11-2.58,3.27-2.58,6.48a18.28,18.28,0,0,0,.33,3.83,4.27,4.27,0,0,0,1.42,2.42,9,9,0,0,0,3,1.57,29.45,29.45,0,0,0,4.91,1.17l18.63,3.33a66.34,66.34,0,0,1,15.23,4.41,27.56,27.56,0,0,1,9.73,7,23.61,23.61,0,0,1,5.07,9.89,54.77,54.77,0,0,1,1.42,13.15v2.83a47.64,47.64,0,0,1-2.42,16,23.83,23.83,0,0,1-8.06,11.07q-5.67,4.32-14.89,6.32c-6.16,1.33-13.79,1.66-22.88,1.66-3,0-29.86.11-35.52,0l-9.05-26c8.76.22,21.05.33,27.6.33H444q8.31,0,11.15-1.58c1.88-1.06,2.83-3.41,2.83-7.07a17.31,17.31,0,0,0-.42-4.16,5.86,5.86,0,0,0-1.5-2.75,8.33,8.33,0,0,0-3.16-1.82,29.13,29.13,0,0,0-5.24-1.25l-14.81-2.5a79,79,0,0,1-16.8-4.58,28.83,28.83,0,0,1-10.23-6.82,21.91,21.91,0,0,1-5.16-9.73,55.78,55.78,0,0,1-1.41-13.48Z" transform="translate(-12 -16.06)"/><path class="cls-2" d="M12,309.44A158.91,158.91,0,0,1,70.2,432.51V651c0,36.7,9.48,72.93,28.4,104.38,57,94.77,144.08,60.37,233.48,164,89.39-103.63,176.47-69.23,233.47-164C584.47,723.89,594,687.66,594,651V432.51a158.9,158.9,0,0,1,58.19-123.07C501.28,298.44,487.49,164,332.08,164S162.87,298.44,12,309.44" transform="translate(-12 -16.06)"/><path class="cls-3" d="M332.08,164V345.87H277.55V170.35C170.69,197.17,143.05,299.89,12,309.44A158.9,158.9,0,0,1,70.19,432.51v76.71h98.54v54.45H70.19V651c0,36.7,9.49,72.93,28.41,104.38,57,94.77,144.08,60.38,233.48,164h0V672.57h54.53V870.66c69.35-46.26,133.64-40,178.94-115.32C584.48,723.89,594,687.66,594,651V509.22H495.43V454.77H594V432.51a158.9,158.9,0,0,1,58.19-123.07C501.29,298.44,487.49,164,332.08,164" transform="translate(-12 -16.06)"/><path class="cls-4" d="M494.91,404.25h-1.86l-42.93,42.93a31.85,31.85,0,0,1-22.52,9.33H384.79V413.7a31.81,31.81,0,0,1,9.33-22.52L437,348.26v-1.87H227.1v1.85L270,391.18a31.85,31.85,0,0,1,9.33,22.52v42.81H236.55A31.89,31.89,0,0,1,214,447.18l-42.92-42.93h-1.86V614.19h1.86L214,571.26a31.89,31.89,0,0,1,22.52-9.33h42.82v42.81A31.85,31.85,0,0,1,270,627.26L227.1,670.2v1.85H437v-1.87l-42.91-42.92a31.81,31.81,0,0,1-9.33-22.52V561.93H427.6a31.85,31.85,0,0,1,22.52,9.33l42.93,42.93h1.86Z" transform="translate(-12 -16.06)"/><path class="cls-5" d="M70.2,509.22H109v-76.7A197.49,197.49,0,0,0,82.89,334.2c46.19-16.35,78.79-43.73,108.6-68.78,28.36-23.82,52.68-44.22,86.06-54.85V170.35C170.69,197.17,143.05,299.89,12,309.44A158.92,158.92,0,0,1,70.2,432.52Z" transform="translate(-12 -16.06)"/><path class="cls-1" d="M332.08,202.72V180.11h0V346.39h54.53V210.57C370.89,205.57,353.18,202.72,332.08,202.72Z" transform="translate(-12 -16.06)"/><polygon class="cls-1" points="543.19 493.16 581.96 493.16 581.96 493.16 482.91 493.16 482.91 547.61 543.19 547.61 543.19 493.16"/><polygon class="cls-1" points="96.96 493.16 58.2 493.16 58.2 493.16 157.25 493.16 157.25 438.71 96.96 438.71 96.96 493.16"/><path class="cls-1" d="M277.55,672.05V825.38A296,296,0,0,1,332.08,864h0v-192Z" transform="translate(-12 -16.06)"/><path class="cls-5" d="M332.08,164v38.77c65.93,0,98.87,27.67,140.58,62.7,29.82,25.05,62.42,52.43,108.6,68.77a197.55,197.55,0,0,0-26.07,98.32v22.26H594V432.51a158.9,158.9,0,0,1,58.19-123.07C501.29,298.44,487.49,164,332.08,164" transform="translate(-12 -16.06)"/><path class="cls-5" d="M332.08,864h0c-40.27-36-79.64-51.93-112.53-65.22-38-15.36-65.48-26.46-87.73-63.46-15-24.85-22.86-54-22.86-84.4V563.67H70.19V651c0,36.7,9.49,72.93,28.41,104.38,57,94.77,144.08,60.38,233.48,164h0Z" transform="translate(-12 -16.06)"/><path class="cls-5" d="M555.19,509.22V651c0,30.36-7.9,59.55-22.85,84.4-22.26,37-49.72,48.1-87.73,63.46-17.74,7.17-37.37,15.1-58,26.54v45.3c69.35-46.26,133.64-40,178.95-115.32C584.47,723.89,594,687.66,594,651V509.22Z" transform="translate(-12 -16.06)"/><path class="cls-2" d="M332.08,212.67c28.34,0,51.95,5.38,74.29,16.92,21.18,10.94,40,26.74,59.89,43.45,27.6,23.19,58.61,49.24,100.88,66.43a208.41,208.41,0,0,0-21.9,93V651c0,28.55-7.41,56-21.43,79.27-20.55,34.15-45.37,44.17-82.93,59.36-31.16,12.59-69.54,28.1-108.8,61.26-39.27-33.16-77.65-48.67-108.8-61.26-37.57-15.19-62.39-25.21-82.93-59.36-14-23.31-21.43-50.72-21.43-79.27V432.51a208.42,208.42,0,0,0-21.91-93c42.27-17.19,73.28-43.24,100.89-66.43,19.9-16.71,38.7-32.51,59.88-43.45,22.34-11.54,46-16.92,74.3-16.92m0-9.74c-30,0-55,5.72-78.77,18-22.14,11.44-41.35,27.57-61.68,44.65-29.78,25-62.34,52.36-108.43,68.73a197.66,197.66,0,0,1,26,98.2V651c0,30.32,7.89,59.47,22.83,84.29,22.22,36.94,49.65,48,87.62,63.37,32.88,13.29,72.22,29.19,112.46,65.13,40.23-35.94,79.57-51.84,112.45-65.13,38-15.34,65.4-26.43,87.63-63.37C547.09,710.43,555,681.28,555,651V432.51a197.69,197.69,0,0,1,26-98.2c-46.09-16.37-78.64-43.71-108.43-68.73-20.33-17.08-39.53-33.21-61.68-44.65-23.77-12.28-48.8-18-78.76-18Z" transform="translate(-12 -16.06)"/><rect class="cls-2" x="58.2" y="493.16" width="99.05" height="54.45"/><rect class="cls-2" x="482.91" y="438.71" width="99.05" height="54.45"/><path class="cls-2" d="M332.12,919.28a267.55,267.55,0,0,1,54.45-48.6V672.05H332.12Z" transform="translate(-12 -16.06)"/><path class="cls-2" d="M332,164a222.58,222.58,0,0,0-54.45,6.39v176H332Z" transform="translate(-12 -16.06)"/><path class="cls-5" d="M249.23,514.28a42.26,42.26,0,0,0,.67,8.32,10.1,10.1,0,0,0,2.48,5.12,9.71,9.71,0,0,0,4.94,2.58,36.63,36.63,0,0,0,8.1.74h9.81c1.61,0,3.49,0,5.63-.06s4.7-.09,7.7-.17l-3.37,18.44c-2.55.08-4.71.13-6.47.17s-3.34.06-4.73.06H264a71.46,71.46,0,0,1-17.32-1.8,26.09,26.09,0,0,1-11.52-5.9,23.63,23.63,0,0,1-6.47-10.86,59.14,59.14,0,0,1-2-16.75v-10a57.32,57.32,0,0,1,2-16.31,23.82,23.82,0,0,1,6.52-10.91,27.22,27.22,0,0,1,11.53-6.07A66.38,66.38,0,0,1,263.85,469H274q2.53,0,5.91.06c2.25,0,4.91.09,8,.16l-3.37,18.45q-5.4-.22-9.11-.23H265.31a37.33,37.33,0,0,0-8.1.73,8.85,8.85,0,0,0-7.36,7.7,45.39,45.39,0,0,0-.62,8.33Z" transform="translate(-12 -16.06)"/><path class="cls-5" d="M299.66,469.18h40.9q12.82,0,18.61,5t5.8,14.9v1.46q0,11.7-9.34,16.2a17.74,17.74,0,0,1,8.66,6.57q3,4.45,3,11.64v2q0,11.81-7.09,17T339,549.25H299.66Zm44.5,23.06q0-3.6-1.8-5.12t-6.18-1.52H319.79v14.73h16q4.61,0,6.47-1.63t1.85-5.34Zm-24.37,40.6H337q5.18,0,7.31-1.64c1.42-1.08,2.14-3.12,2.14-6.12v-1.47c0-3.15-.73-5.26-2.19-6.35s-4-1.63-7.59-1.63H319.79Z" transform="translate(-12 -16.06)"/><polygon class="cls-5" points="425.53 453.12 422.27 470.67 386.19 470.67 386.19 486.19 420.35 486.19 417.2 503.17 386.19 503.17 386.19 533.19 365.05 533.19 365.05 453.12 425.53 453.12"/><polygon class="cls-6" points="352.43 100.59 340.37 62.74 371.11 39.47 371.11 37.85 332.67 37.85 320.61 0 319.26 0 307.48 37.85 269.04 37.85 269.04 39.49 299.49 62.74 287.71 100.59 289.91 100.59 319.93 78.14 350.22 100.59 352.43 100.59"/><polygon class="cls-6" points="500.87 132.11 488.81 94.26 519.55 71 519.55 69.38 481.11 69.38 469.06 31.52 467.71 31.52 455.93 69.38 417.49 69.38 417.49 71.01 447.93 94.26 436.16 132.11 438.36 132.11 468.37 109.66 498.66 132.11 500.87 132.11"/><polygon class="cls-6" points="203.98 132.11 191.92 94.26 222.66 71 222.66 69.38 184.22 69.38 172.16 31.52 170.82 31.52 159.04 69.38 120.6 69.38 120.6 71.01 151.04 94.26 139.27 132.11 141.47 132.11 171.48 109.66 201.77 132.11 203.98 132.11"/><polygon class="cls-6" points="83.51 223.75 71.45 185.89 102.19 162.63 102.19 161.01 63.75 161.01 51.69 123.16 50.34 123.16 38.57 161.01 0.13 161.01 0.13 162.65 30.57 185.89 18.8 223.75 20.99 223.75 51.01 201.29 81.3 223.75 83.51 223.75"/><polygon class="cls-6" points="621.34 223.75 609.28 185.89 640.02 162.63 640.02 161.01 601.58 161.01 589.52 123.16 588.18 123.16 576.4 161.01 537.96 161.01 537.96 162.65 568.4 185.89 556.63 223.75 558.82 223.75 588.84 201.29 619.13 223.75 621.34 223.75"/></svg>