<svg xmlns:rdf="http://www.w3.org/1999/02/22-rdf-syntax-ns#" xmlns="http://www.w3.org/2000/svg" height="599.6" width="398" version="1.1" xmlns:cc="http://creativecommons.org/ns#" xmlns:dc="http://purl.org/dc/elements/1.1/" viewBox="0 0 398 600">
	<defs>
		<linearGradient id="c" x1="703.6" gradientUnits="userSpaceOnUse" x2="450" gradientTransform="matrix(1.345 0 0 1.345 -578.1 34.87)" y1="112.2" y2="339.6">
			<stop stop-color="#0276b7" offset="0"/>
			<stop stop-color="#005da9" offset=".158"/>
			<stop stop-color="#1a4c87" offset=".333"/>
			<stop stop-color="#242866" offset=".5037"/>
			<stop stop-color="#20255d" offset=".6804"/>
			<stop stop-color="#1b1f4e" offset=".8725"/>
			<stop stop-color="#181947" offset="1"/>
		</linearGradient>
		<linearGradient id="d" x1="717.7" gradientUnits="userSpaceOnUse" x2="438.7" gradientTransform="matrix(1.389 0 0 1.389 -604.3 24.48)" y1="102.8" y2="347.1">
			<stop stop-color="#ccaa72" offset="0"/>
			<stop stop-color="#d1bf89" offset=".1372"/>
			<stop stop-color="#d8b98a" offset=".2643"/>
			<stop stop-color="#dec78a" offset=".3757"/>
			<stop stop-color="#d5cb99" offset=".4993"/>
			<stop stop-color="#d5bd93" offset=".5982"/>
			<stop stop-color="#c5a66d" offset=".7145"/>
			<stop stop-color="#c69467" offset=".8479"/>
			<stop stop-color="#c3976a" offset="1"/>
		</linearGradient>
	</defs>
	<path fill="url(#d)" d="m199 78.14-199 90.06v342.8l199 88.6 199-88.6 0.00047-342.8z"/>
	<svg transform="matrix(.99933 0 0 .99933 .13310 -.00016785)" height="100%" viewBox="0 0 398 600" width="100%" version="1.1"/>
	<path fill="url(#c)" d="m11.64 174.6v330l187.4 83.36 187.3-83.36v-330l-187.3-84.84z"/>
	<path fill="#c4ae75" d="m138.6-0.00030518-8.17 26.05h-26.46l21.4 16.09-8.17 22.48 21.4-12.52 21.4 12.52-8.172-22.48 21.4-16.09h-26.46l-8-26.05zm121.9 0-8.172 26.05h-26.45l21.4 16.09-8.172 22.48 21.4-12.52 21.4 12.52-8.172-22.48 21.4-16.09h-26.45l-8.2-26.05z"/>
	<path fill="#fff" d="m272 443.2c-10.29 0-21.17 6.398-21.17 19.85 0 12.27 10.88 19.33 21.17 19.33 6.926 0 11.74-2.045 13.59-2.969l-1.188-6.859c-1.715 1.187-5.145 2.77-11.02 2.77-7.585 0-13.92-3.957-13.92-12.79 0-7.585 6.331-12.6 13.92-12.6 5.54 0 8.971 1.912 10.69 2.77l1.188-6.727c-1.517-1.055-6.86-2.771-13.26-2.771zm-198.2 0.5332v38.12h8.641v-13.65h18.21v-7.189h-18.21v-10.03h23.02v-7.256h-31.66zm42.19 0v38.12h8.113v-11.02h9.629l8.113 11.02h9.762l-9.365-12.73c4.947-2.572 6.793-7.057 6.793-11.94 0-7.783-5.146-13.46-13.92-13.46h-19.13zm57.5 0-16.69 38.12h9.299l2.771-6.531h18.14l2.836 6.531h9.299l-16.69-38.12h-8.971zm32.22 0v38.12h8.641v-24.87l20.31 24.87h8.246v-38.12h-8.641v25.46l-20.31-25.46h-8.246zm87.64 0.004v38.12h31.86v-7.059h-23.42v-8.111h16.16v-7.256h-16.16v-8.443h22.56v-7.254h-31zm-169.3 7.252h10.49c4.155 0 6.002 2.573 6.002 6.201 0 3.957-1.847 6.924-6.002 6.924h-10.49v-13.12zm53.94 2.77 5.936 14.45h-12.14l6.201-14.45z"/>
	<path fill-rule="evenodd" fill="#ceac76" d="m143.8 500.2v27.34h7.055v-9.406h18.25v-5.686h-18.25v-6.139h21.08v-6.107h-28.13zm41.64 0v27.34h7.055v-9.406h18.25v-5.686h-18.25v-6.139h21.08v-6.107h-28.13zm41.64 0v27.34h7.055v-9.406h18.25v-5.686h-18.25v-6.139h21.08v-6.107h-28.13z"/>
	<path fill="#fff" d="m289.9 182c-4.023 4.551-10.82 11.94-8.111 18.27 2.902 6.266 15.5 4.946 17.54 4.748-14.18-3.166-16.89-9.696-9.434-23.02zm-16.42 11.28c-1.781 0-3.365 1.582-3.365 3.363 0 2.045 1.584 3.629 3.365 3.629 2.045 0 3.627-1.584 3.627-3.629 0-1.781-1.582-3.363-3.627-3.363zm-108.4 3.957c-16.49 0-33.7 4.023-48.02 14.05 35.22-10.42 63.39 2.704 74.47 28.43 15.63 2.243 29.02 7.982 40.76 15.04-4.221-31.79-28.63-57.52-67.21-57.52zm-22.93 18.24c-20.83 0.2158-42.56 10.21-53.64 24.44-24.27 30.87-12.33 70.71 1.121 84.89-9.432-55.6 25.2-101.6 86.54-97.95-9.35-8.113-21.52-11.5-34.01-11.38zm119.4 11.57c4.551 10.09 8.311 25.46 8.311 36.54 0 45.31-37.33 60.55-58.64 94.39 24.54-18.8 60.62-35.29 73.87-66.35 8.772-20.51 2.045-50.39-23.55-64.57zm-83.83 16.22c-46.96 0-73.74 33.77-73.74 72.95 0 22.76 11.08 40.63 16.23 45.71-13.06-40.43 14.18-84.82 56.26-84.82 26.98 0 48.22 20.71 69.32 34.3 7.519-8.641 13.65-17.68 16.95-28.82-20.51-16.03-46.43-39.31-85.02-39.31zm125 0.6602c5.606 16.69 2.506 36.94-7.85 48.88 11.15-1.781 19.66-11.21 19.66-22.16 0-7.123-3.232-19.72-11.81-26.71zm11.94 40.76c-6.068 8.113-13.85 12.73-23.02 12.73-1.319 0-2.703-0.1326-4.088-0.3965-4.683 9.432-11.41 17.61-19.13 24.87 2.902 0.6596 5.805 0.9883 8.773 0.9883 22.23 0 36.28-18.73 37.46-38.19zm-119.8 0.3965c-6.794 42.28-29.68 87.59 4.75 134.8-16.49-45.64 11.08-80.01 25.46-117.4-9.63-6.86-19.59-13.52-30.21-17.35zm-65.43 28.89c-13.92 26.38-1.978 49.8 22.76 46.44-15.76-5.409-26.58-27.7-22.76-46.44z"/>
	<path fill="#d91c1f" d="m251.9 160.7c-3.826 4.287-5.607 9.497-2.902 13.98-3.166 1.583-7.189 2.243-10.55 0.6602-3.364 4.485-3.166 10.16-1.121 13.52-2.704 2.045-6.794 3.363-10.36 2.506 1.121 4.023 4.946 6.926 8.771 6.926-0.6596 2.968-1.781 4.288-4.287 5.211 3.166 6.068 13.52 7.651 20.45 5.145-0.6596-0.6596-1.979-2.902-1.979-6.529 0-9.696 8.178-16.09 19.46-16.09 4.683 0 7.652 0.658 9.301 0.9219 0.7256 0.066 1.253 0.1994 1.715-0.9219 1.187-2.968 2.309-8.443-2.836-12.73-8.575-7.189-21.57-4.023-25.66-12.6zm33.51 46.63c-3.826 11.48 3.166 23.41 13.52 23.41 5.804 0 8.773-3.825 8.773-8.311 0-3.826-2.969-6.991-7.916-7.914-4.485-0.9234-12.99-1.319-14.38-7.189z"/>
</svg>
