<?xml version="1.0" encoding="utf-8"?>
<!-- Generator: Adobe Illustrator 23.0.1, SVG Export Plug-In . SVG Version: 6.00 Build 0)  -->
<svg version="1.1"
	 id="Livello_1" xmlns:cc="http://creativecommons.org/ns#" xmlns:dc="http://purl.org/dc/elements/1.1/" xmlns:rdf="http://www.w3.org/1999/02/22-rdf-syntax-ns#"
	 xmlns="http://www.w3.org/2000/svg" xmlns:xlink="http://www.w3.org/1999/xlink" x="0px" y="0px" viewBox="0 0 4881.8 8192"
	 enable-background="new 0 0 4881.8 8192" xml:space="preserve">
<g>
	<polygon fill="#C5B783" points="1553.1,447.4 1613.6,506.2 1562.8,803.3 1672.3,745.4 1818.1,668.4 1828.6,662.9 1829,663.1 
		1937.2,719.9 2083,796.3 2095.9,803.3 2083,727 2045,506.2 2083,469.1 2202.1,352.7 2260.6,295.5 2202.1,287.1 2083,269.9 
		1962.5,252.5 1937.2,201.4 1829,0.7 1828.6,0 1818.1,21.4 1696.1,252.5 1672.3,255.9 1553.1,273.1 1407.5,294.1 1397.3,295.5 
		1407.5,305.4 	"/>
	<polygon fill="#C5B783" points="2777.4,447.4 2837.8,506.2 2787.1,803.3 2896.6,745.4 3042.4,668.4 3052.9,662.9 3053.3,663.1 
		3161.4,719.9 3307.3,796.3 3320.3,803.3 3307.3,727 3269.3,506.2 3307.3,469.1 3426.4,352.7 3484.9,295.5 3426.4,287.1 
		3307.3,269.9 3186.8,252.5 3161.4,201.4 3053.3,0.7 3052.9,0 3042.4,21.4 2920.3,252.5 2896.6,255.9 2777.4,273.1 2631.8,294.1 
		2621.5,295.5 2631.8,305.4 	"/>
	<polygon fill="#C5B783" points="407.9,721.2 468.2,780 417.6,1077 527.1,1019.2 672.8,942.3 683.3,936.7 683.7,936.9 792,993.7 
		937.6,1070.1 950.8,1077 937.6,1000.9 899.8,780 937.6,742.9 1056.8,626.5 1115.3,569.3 1056.8,560.8 937.6,543.7 817.2,526.3 
		792,475.1 683.7,256.6 683.3,255.9 672.8,277.4 550.7,526.3 527.1,529.7 407.9,546.9 262.2,567.8 252,569.3 262.2,579.2 	"/>
	<polygon fill="#C5B783" points="3922.6,721.2 3983.1,780 3932.3,1077 4041.8,1019.2 4187.6,942.3 4198.1,936.7 4198.5,936.9 
		4306.7,993.7 4452.5,1070.1 4465.5,1077 4452.5,1000.9 4414.5,780 4452.5,742.9 4571.6,626.5 4630.2,569.3 4571.6,560.8 
		4452.5,543.7 4332,526.3 4306.7,475.1 4198.5,256.6 4198.1,255.9 4187.6,277.4 4065.5,526.3 4041.8,529.7 3922.6,546.9 3777,567.8 
		3766.8,569.3 3777,579.2 	"/>
	<path fill="#0057B8" d="M2441,8023.8c2023.4-795.8,2283.3-1878.5,2283-2734.3c6.2-230.3-11.8-2482.6-49.9-3572.8
		c-973.6-39.8-1780.9-285.3-2232.9-512.1c-489.6,247.8-1317.3,505.5-2233.3,515.6c-38.1,1090.3-56.2,3339.1-50.1,3567.1
		C157.4,6144.7,417.4,7227.3,2441,8023.8"/>
	<path fill="#C5B783" d="M207.9,1720.2c916-10.1,1743.6-267.9,2233.3-515.7c452,226.9,1259.3,472.4,2232.9,512.3
		c38,1090.1,56.1,3342.5,49.9,3572.7c0.4,855.7-259.6,1938.6-2283,2734.3C417.4,7227.3,157.4,6144.7,157.8,5287.3
		C151.7,5059.3,169.8,2810.5,207.9,1720.2 M4828,1638.1l-2.8-73.1l-73.1-2.2c-1006.8-30.2-1835.3-286.2-2274.7-515.7l-36.4-18.9
		l-36.3,18.9c-477.4,249.9-1319.8,516.9-2252.5,516.9l-95.2-0.4l-2.9,75.7C14,2698.3-5.1,5057.2,1.2,5289.4
		C0.6,6639.9,744.2,7531.7,2412.5,8181l28.4,11l28.3-11c1668.2-648.6,2411.9-1540.4,2411.3-2889.4
		C4886.9,5057.3,4867.9,2698,4828,1638.1"/>
	<path fill="#009F4D" d="M1537.1,3526.2c0-34.8,2-69.1,5.5-102.9c-325.9,40.7-650.4,103.6-972.1,188.7
		c-5.9,570.1-8.9,1111.5-8.4,1681.6c0.5,537.8,127,948.1,393.7,1295.9c195.9,254.8,475.4,488.8,842.7,699.7V4183.7
		C1636.9,4014.8,1537.1,3782.5,1537.1,3526.2"/>
	<path fill="#E4002B" d="M3345,3526.2c0,256.8-100.1,489.3-262,658.3v3105.2c367.5-211,647-445,843-699.9
		c266.6-347.9,393.1-758.3,393.6-1296.2c0.5-570.2-2.4-1111.8-8.3-1682c-321.6-85.1-646.1-147.8-971.9-188.5
		C3343,3457,3345,3491.3,3345,3526.2"/>
	<path fill="#FFFFFF" d="M2441.1,4461.2c-251.4,0-478.7-106.2-642.7-277.6v3105.6c190.3,109.3,403.9,212.5,642.5,309
		c238.4-96.4,451.9-199.5,642.1-308.6V4184.4C2919.2,4355.3,2692.1,4461.2,2441.1,4461.2"/>
	<path fill="#C5B783" d="M3257.9,3124.6c351.9,36.6,702.4,97.1,1049.7,181.4c-0.7-53.9-1.3-107.9-2.1-161.9
		c-379-90-761.6-152-1145.8-186.4C3197.8,3009.4,3230.8,3065.3,3257.9,3124.6"/>
	<path fill="#C5B783" d="M1623.6,3126c27-59.4,60-115.3,97.8-167.1c-383.9,35.1-766.4,97.8-1145.2,188.5c-0.7,54-1.3,107.9-2,161.8
		C921.4,3224.3,1271.7,3163.2,1623.6,3126"/>
	<path fill="#C5B783" d="M2244.9,4245.7c64.6,23.7,135,35.6,209.4,35.6c126.6,0,254-36.1,358.5-101.5
		c131.3-82.2,211.7-185.4,260.7-275.4c-99.1,123.6-249.4,218.3-424.6,218.3c-104.3,0-206.4-33.4-303.1-99.2
		c-202.6-137.6-332.9-355.4-356.3-591.3c-86.9,107.2-121.5,260.2-90.7,413.1C1936.5,4033.1,2062.8,4179.1,2244.9,4245.7"/>
	<path fill="#C5B783" d="M2074.7,3171.6c117.3-62.8,240.4-94.6,365.7-94.6c104.9,0,207.9,22.8,301.5,66.3
		c-61.4-184.2-246-317.3-451.1-317.3c-124.5,0-243.8,48.5-345.2,140.2c-142.9,129.9-233.4,346.8-230.7,552.3
		c2.1,155.8,44,277.7,91.7,366.6c-35.4-105.6-44.3-221.3-22.4-330C1807.6,3438.7,1877,3277.7,2074.7,3171.6"/>
	<path fill="#C5B783" d="M2807.7,2848c-111.2-65.4-234.5-99.9-356.6-99.9c-2,0-3.9,0-5.9,0.1c121.2,20.7,236,80.1,319.2,167.4
		c107,112.3,159.2,262.8,150.8,435.2c-12.4,253.7-127.9,481.9-312.1,621.5c149.6,30.1,319.2-36.5,428.8-167.8
		c106.2-127.1,147-294.4,115.2-471.2C3111.3,3138,2978.1,2947.5,2807.7,2848"/>
	<polygon fill="#C5B783" points="2125.6,3619.7 2125.6,3511.4 2223.3,3511.4 2223.3,3461.2 2125.6,3461.2 2125.6,3404.5 
		2246.2,3404.5 2246.2,3354.3 2072.5,3354.3 2072.5,3619.7 	"/>
	<rect x="2292.4" y="3354.3" fill="#C5B783" width="53.1" height="265.4"/>
	<path fill="#C5B783" d="M2534.8,3352.8h-87.4c-31,0-52.3,21.4-52.3,52.4v163.6c0,30.9,21.4,52.3,52.3,52.3h87.4
		c31,0,52.3-21.4,52.3-52.3V3484h-86.3v47.9h33.3v26.6c0,8.5-4.1,12.5-12.5,12.5h-60.8c-8.5,0-12.6-4-12.6-12.5v-143
		c0-8.5,4.1-12.5,12.6-12.5h60.8c8.4,0,12.5,4,12.5,12.5v24.3h53.1v-34.6C2587.1,3374.3,2565.8,3352.8,2534.8,3352.8"/>
	<path fill="#C5B783" d="M2773.1,3352.8h-84c-31,0-52.4,21.4-52.4,52.4v163.6c0,30.9,21.4,52.3,52.4,52.3h84
		c31,0,52.3-21.4,52.3-52.3v-33.8h-53.1v23.4c0,8.5-4.1,12.5-12.5,12.5h-57.5c-8.5,0-12.6-4-12.6-12.5v-143
		c0-8.5,4.1-12.5,12.6-12.5h57.5c8.4,0,12.5,4,12.5,12.5v22.2h53.1v-32.4C2825.4,3374.3,2804.1,3352.8,2773.1,3352.8"/>
	<path fill="#C5B783" d="M586.7,2065.1l-4,0.9v787.7l6.4-1.5c47.5-11.4,94.8-22.4,142.5-32.9l4.1-0.8v-787.7l-6.3,1.4
		C681.7,2042.7,634.2,2053.6,586.7,2065.1"/>
	<path fill="#C5B783" d="M1001.2,1976.9l-4.3,0.8v145l6.2-1.1c59-10.9,120.3-21.4,181.9-31.3v636.8c51.5-8.9,103-17.3,154.6-25.1
		v-635c62.2-8.7,124.2-16.7,184.5-23.7l4.5-0.5v-145l-5.8,0.7C1348.6,1918.8,1173.1,1945.2,1001.2,1976.9"/>
	<path fill="#C5B783" d="M1954.2,2038.3c0-20.2,9.1-29.9,29.6-31.1c52.2-3.3,106-6,159.6-8.2h2.6c18.6,0,26.4,8.3,26.4,27.7v292.8
		c-72.5,2.7-145.9,6.5-218.2,11.2V2038.3z M1954.2,2635.2v-157.6c72.5-4.7,145.8-8.5,218.2-11.2v157.3c52-1.9,104.1-3.3,156.1-4
		v-625.2c0-87-61.9-146.7-149-143.9c-76.8,2.8-155.3,6.8-232.8,11.9c-87.2,5.8-148.2,71-148.2,158.5v626.1
		C1850.3,2642.6,1902.3,2638.6,1954.2,2635.2"/>
	<path fill="#C5B783" d="M4146.5,2499.3c-70.8-15.6-142.9-30.4-214.5-44.2v-293.5c0-20.8,9.3-23.6,18.4-23.6c2.9,0,5.9,0.4,9.4,1
		c53.9,10.6,106.8,21.4,156.9,32.4c20.5,4.5,29.7,15.9,29.7,36.6V2499.3z M3925.9,1985.4c-47.6-9.1-89.2,2.1-116.1,30.9
		c-20.8,22.3-31.8,53.8-31.8,91.1V2741c51.4,9.5,102.8,19.5,154,30v-168.8c72.4,13.9,144.4,28.8,214.5,44.2v171.9
		c51,12,101.9,24.6,152.8,37.7v-643.3c0-87.2-59.4-161.3-144.5-180.2C4078.5,2015.6,4001.5,1999.7,3925.9,1985.4"/>
	<path fill="#C5B783" d="M2778.4,1852c-48.6-2-97.2-3.5-145.8-4.6l-5.3-0.2v773.9c150.3,3.8,300.6,12.3,450.8,25.4v-136l-4.8-0.4
		c-96-7.5-193.6-13.3-289.9-17.3v-640.5L2778.4,1852z"/>
	<path fill="#C5B783" d="M3363.1,1899l-5.8-0.7v777.9c51.8,6.5,103.4,13.5,155.2,21.1v-779.3l-4.5-0.6
		C3462,1911,3414.6,1904.9,3363.1,1899"/>
</g>
</svg>
