<?xml version="1.0" encoding="utf-8"?>
<!-- Generator: Adobe Illustrator 11.0, SVG Export Plug-In  -->
<!DOCTYPE svg PUBLIC "-//W3C//DTD SVG 1.0//EN"    "http://www.w3.org/TR/2001/REC-SVG-20010904/DTD/svg10.dtd" [
	<!ENTITY ns_flows "http://ns.adobe.com/Flows/1.0/">
	<!ENTITY ns_svg "http://www.w3.org/2000/svg">
	<!ENTITY ns_xlink "http://www.w3.org/1999/xlink">
]>
<svg  xmlns="&ns_svg;" xmlns:xlink="&ns_xlink;" xmlns:a="http://ns.adobe.com/AdobeSVGViewerExtensions/3.0/"
	 width="147" height="196" viewBox="-0.148 -0.934 147 196" xml:space="preserve">
	<defs>
	</defs>
	<g>
		<path fill="#94814A" stroke="#000000" stroke-width="1.9732" stroke-miterlimit="1" d="M94.65,143.201v31.862l22.753,18.295v0.009
			H28.144v-0.009l22.753-18.295v-31.862l0,0c3.617,4.379,7.732,8.038,12.23,10.807c0.5,0.232,1.093,0.366,1.728,0.366
			c1.105,0,2.085-0.407,2.668-1.026c0.741-1.119,1.847-1.758,2.896-1.538c1.348,0.283,2.159,1.89,1.98,3.734l0,0h0.749l0,0
			c-0.179-1.845,0.633-3.451,1.98-3.734c1.049-0.221,2.154,0.419,2.896,1.537c0.583,0.62,1.562,1.027,2.667,1.027
			c0.635,0,1.228-0.135,1.728-0.366C86.918,151.239,91.033,147.58,94.65,143.201L94.65,143.201z"/>
		<path fill="#94814A" stroke="#000000" stroke-width="1.9732" stroke-miterlimit="1" d="M94.65,44.276V19.29l22.753-18.295V0.987
			H28.144v0.009l22.753,18.295v24.986l0,0c2.813-1.098,5.731-2.544,8.618-4.322c1.133-0.697,2.221-1.421,3.259-2.164
			c1.139,1.967,3.491,3.22,5.698,2.894c2.078-0.308,3.404-1.924,3.397-3.872c-0.001-0.024-0.001-0.047-0.001-0.071
			c-0.003-0.154-0.015-0.309-0.034-0.466l0,0h1.879l0,0c-0.021,0.157-0.031,0.312-0.035,0.465c0,0.024,0,0.048,0,0.072
			c-0.008,1.948,1.319,3.564,3.397,3.872c2.206,0.327,4.559-0.926,5.698-2.894c1.038,0.743,2.125,1.467,3.258,2.164
			C88.918,41.731,91.837,43.178,94.65,44.276L94.65,44.276z"/>
		<path fill="#94814A" stroke="#000000" stroke-width="1.9732" stroke-miterlimit="1" d="M24.653,58.869h-5.362L0.996,36.116H0.987
			v89.259h0.009l18.295-22.753h16.411l0,0C34.494,86.272,30.552,71.267,24.653,58.869L24.653,58.869z"/>
		<path fill="#94814A" stroke="#000000" stroke-width="1.9732" stroke-miterlimit="1" d="M120.894,58.869h6.187l18.295-22.753h0.009
			v89.259h-0.009l-18.295-22.753h-17.234l0,0C111.054,86.272,114.995,71.267,120.894,58.869L120.894,58.869z"/>
		<path fill="#FF1100" stroke="#000000" stroke-width="1.9732" stroke-miterlimit="1" d="M89.047,149.047v28.555l13.516,10.868
			H42.984L56.5,177.603v-28.556l0,0c2.097,1.874,4.311,3.536,6.627,4.961c0.5,0.232,1.093,0.366,1.728,0.366
			c1.105,0,2.085-0.407,2.668-1.026c0.741-1.119,1.847-1.758,2.896-1.538c1.348,0.283,2.159,1.89,1.98,3.734l0,0h0.749l0,0
			c-0.179-1.845,0.633-3.451,1.98-3.734c1.049-0.221,2.154,0.419,2.896,1.537c0.583,0.62,1.562,1.027,2.667,1.027
			c0.635,0,1.228-0.135,1.728-0.366C84.736,152.583,86.95,150.921,89.047,149.047L89.047,149.047z"/>
		<path fill="#FF1100" stroke="#000000" stroke-width="1.9732" stroke-miterlimit="1" d="M89.047,41.687V16.752l13.516-10.868
			H42.984L56.5,16.751v24.935l0,0c1.005-0.537,2.012-1.115,3.015-1.732c1.133-0.697,2.221-1.421,3.259-2.164
			c1.139,1.967,3.491,3.22,5.698,2.894c2.078-0.308,3.404-1.924,3.397-3.872c-0.001-0.024-0.001-0.047-0.001-0.071
			c-0.003-0.154-0.015-0.309-0.034-0.466l0,0h1.879l0,0c-0.021,0.157-0.031,0.312-0.035,0.465c0,0.024,0,0.048,0,0.072
			c-0.008,1.948,1.319,3.564,3.397,3.872c2.206,0.327,4.559-0.926,5.698-2.894c1.038,0.743,2.125,1.467,3.258,2.164
			C87.035,40.572,88.042,41.149,89.047,41.687L89.047,41.687z"/>
		<path fill="#FF1100" stroke="#000000" stroke-width="1.9732" stroke-miterlimit="1" d="M27.114,64.472H16.752L5.884,50.956v59.579
			L16.751,97.02h18.424l0,0C33.825,85.188,31.035,74.17,27.114,64.472L27.114,64.472z"/>
		<path fill="#FF1100" stroke="#000000" stroke-width="1.9732" stroke-miterlimit="1" d="M118.433,64.472h11.187l10.867-13.516
			v59.579L129.62,97.02h-19.247l0,0C111.722,85.189,114.513,74.17,118.433,64.472L118.433,64.472z"/>
		<path fill="#94814A" stroke="#000000" stroke-width="1.9732" stroke-miterlimit="1" d="M80.817,154.372v25.755H64.731v-25.754l0,0
			c0.041,0.001,0.082,0.001,0.124,0.001c1.105,0,2.085-0.407,2.668-1.026c0.741-1.119,1.847-1.758,2.896-1.538
			c1.348,0.283,2.159,1.89,1.98,3.734l0,0h0.749l0,0c-0.179-1.845,0.633-3.451,1.98-3.734c1.049-0.221,2.154,0.419,2.896,1.537
			c0.583,0.62,1.562,1.027,2.667,1.027C80.734,154.374,80.775,154.373,80.817,154.372L80.817,154.372z"/>
		<path fill="#94814A" stroke="#000000" stroke-width="1.9732" stroke-miterlimit="1" d="M80.817,39.814V14.227H64.731v25.587l0,0
			c1.116,0.713,2.453,1.061,3.741,0.87c2.078-0.308,3.404-1.924,3.397-3.872c-0.001-0.024-0.001-0.047-0.001-0.071
			c-0.003-0.154-0.015-0.309-0.034-0.466l0,0h1.879l0,0c-0.021,0.157-0.031,0.312-0.035,0.465c0,0.024,0,0.048,0,0.072
			c-0.008,1.948,1.319,3.564,3.397,3.872C78.363,40.874,79.7,40.527,80.817,39.814L80.817,39.814z"/>
		<path fill="#94814A" stroke="#000000" stroke-width="1.9732" stroke-miterlimit="1" d="M30.067,72.703h-15.84v16.086h19.756l0,0
			C32.996,83.182,31.677,77.8,30.067,72.703L30.067,72.703z"/>
		<path fill="#94814A" stroke="#000000" stroke-width="1.9732" stroke-miterlimit="1" d="M115.48,72.703h16.664v16.086h-20.58l0,0
			C112.552,83.182,113.87,77.8,115.48,72.703L115.48,72.703z"/>
		<path fill="#FFFFFF" stroke="#000000" stroke-width="1.9732" stroke-miterlimit="1" d="M75.485,151.768v22.374h-5.423v-22.374l0,0
			c0.119,0.004,0.238,0.018,0.356,0.042c1.348,0.283,2.159,1.89,1.98,3.734l0,0h0.749l0,0c-0.179-1.845,0.633-3.451,1.98-3.734
			C75.247,151.785,75.366,151.771,75.485,151.768L75.485,151.768z"/>
		<path fill="#FFFFFF" stroke="#000000" stroke-width="1.9732" stroke-miterlimit="1" d="M75.485,40.118V20.212h-5.423v19.906l0,0
			c1.14-0.698,1.813-1.917,1.808-3.306c-0.001-0.024-0.001-0.047-0.001-0.071c-0.003-0.154-0.015-0.309-0.034-0.466l0,0h1.879l0,0
			c-0.021,0.157-0.031,0.312-0.035,0.465c0,0.024,0,0.048,0,0.072C73.672,38.2,74.345,39.42,75.485,40.118L75.485,40.118z"/>
		<path fill="#FFFFFF" stroke="#000000" stroke-width="1.9732" stroke-miterlimit="1" d="M31.617,78.035H20.212v5.422H32.93l0,0
			C32.528,81.621,32.089,79.813,31.617,78.035L31.617,78.035z"/>
		<path fill="#FFFFFF" stroke="#000000" stroke-width="1.9732" stroke-miterlimit="1" d="M113.93,78.035h12.229v5.422h-13.542l0,0
			C113.019,81.621,113.458,79.813,113.93,78.035L113.93,78.035z"/>
		<path fill="#FF1100" stroke="#000000" stroke-width="0.1769" stroke-miterlimit="1" d="M73.713,36.274h-1.879l0,0
			c0.02,0.157,0.031,0.312,0.034,0.466c0,0.024,0,0.047,0.001,0.071c0.007,1.948-1.319,3.564-3.397,3.872
			c-2.207,0.327-4.56-0.926-5.698-2.894c-1.038,0.743-2.126,1.467-3.259,2.164c-10.451,6.435-21.321,8.541-26.05,5.408l0,0
			l-2.375-1.276l-9.043,9.704l0,0c8.723,15.773,14.047,36.664,14.047,59.525c0,5.341-0.291,10.573-0.848,15.659
			c5.188,2.467,9.657,6.197,13.001,10.785l0,0h0.014l0,0c4.205,5.922,9.235,10.782,14.866,14.248c0.5,0.232,1.093,0.366,1.728,0.366
			c1.105,0,2.085-0.407,2.668-1.026c0.741-1.119,1.847-1.758,2.896-1.538c1.348,0.283,2.159,1.89,1.98,3.734l0,0h0.749l0,0
			c-0.179-1.845,0.633-3.451,1.98-3.734c1.049-0.221,2.154,0.419,2.896,1.537c0.583,0.62,1.562,1.027,2.667,1.027
			c0.635,0,1.228-0.135,1.728-0.366c5.632-3.466,10.661-8.326,14.866-14.249l0,0H97.3l0,0c3.344-4.587,7.813-8.317,13.001-10.785
			c-0.558-5.085-0.849-10.317-0.849-15.658c0-22.862,5.324-43.752,14.047-59.525l0,0l-9.043-9.704l-2.375,1.276l0,0
			c-4.728,3.133-15.598,1.027-26.05-5.408c-1.133-0.697-2.22-1.421-3.258-2.164c-1.14,1.967-3.492,3.22-5.698,2.894
			c-2.078-0.308-3.405-1.924-3.397-3.872c0-0.024,0-0.048,0-0.072C73.682,36.586,73.693,36.431,73.713,36.274L73.713,36.274z"/>
		<path fill="#94814A" stroke="#000000" stroke-width="1.9732" stroke-miterlimit="1" d="M85.497,58.423
			c3.886,1.732,8.496,2.174,12.705,2.199c1.705-0.002,3.391-0.125,5.096-0.23l0,0l4.866,5.53l-1.629,5.158l0,0
			c-2.75,9.273-4.534,18.624-5.513,28.245c-0.573,6.252-0.821,12.499-0.688,18.775c0.049,2.07,0.146,4.137,0.235,6.207l0,0
			l-2.955,1.931l0,0c-3.897,2.739-6.889,6.354-9.4,10.37c-1.448,2.38-3.565,4.263-5.929,5.707c-2.93,1.678-6.123,2.582-9.512,2.529
			c-5.574,0.086-10.655-2.366-14.26-6.571l0,0l-2.061-3.036l0,0c-2.428-3.593-5.261-6.792-8.869-9.234l0,0l-2.607-1.695l0.186-4.428
			l-1.132-24.991l0,0c-1.06-8.097-2.697-15.98-5.019-23.809l0,0l-1.628-5.158l4.866-5.53l0,0c1.587,0.098,3.158,0.21,4.746,0.229
			c4.353,0.023,9.335-0.435,13.318-2.324c0.52-0.262,0.995-0.549,1.536-0.771c3.522-1.333,7.659-1.18,10.922,0.813
			c3.264-1.993,7.4-2.146,10.923-0.813C84.324,57.784,84.886,58.134,85.497,58.423L85.497,58.423z"/>
		<path fill="#FFFFFF" stroke="#000000" stroke-width="1.9732" stroke-miterlimit="1" d="M72.774,64.383
			c1.459-1.875,3.744-3.086,6.305-3.086c1.098,0,2.146,0.223,3.099,0.626c3.369,2.007,9.292,3.343,16.014,3.343
			c1.063,0,2.106-0.034,3.123-0.099l0,0l1.628,1.85l0,0c-4.672,14.408-7.291,30.519-7.291,47.504c0,2.466,0.056,4.914,0.165,7.341
			c-4.495,2.868-8.531,7.276-11.868,12.827c-2.477,3.341-6.451,5.515-10.92,5.515c-0.085,0-0.17,0-0.254-0.002
			c-0.085,0.002-0.17,0.002-0.255,0.002c-4.468,0-8.443-2.174-10.92-5.515c-3.337-5.551-7.373-9.959-11.867-12.827
			c0.108-2.427,0.164-4.875,0.164-7.341c0-16.985-2.619-33.096-7.29-47.504l0,0l1.627-1.85l0,0c1.017,0.064,2.06,0.099,3.123,0.099
			c6.722,0,12.645-1.336,16.014-3.343c0.954-0.403,2.001-0.626,3.1-0.626C69.029,61.296,71.314,62.507,72.774,64.383L72.774,64.383z
			"/>
		<path fill="#19338F" d="M67.009,92.1h11.529v13.852l0,0l0,0c0,2.39-2.59,4.339-5.765,4.339s-5.765-1.949-5.765-4.339l0,0l0,0V92.1
			L67.009,92.1z"/>
		<path fill="#FFFFFF" d="M76.114,107.61c-0.991,0-1.8-0.809-1.8-1.8c0-0.99,0.809-1.799,1.8-1.799c0.99,0,1.799,0.809,1.799,1.799
			C77.913,106.802,77.104,107.61,76.114,107.61L76.114,107.61z"/>
		<path fill="#FFFFFF" d="M69.434,107.61c-0.991,0-1.8-0.809-1.8-1.799c0-0.991,0.809-1.799,1.8-1.799
			c0.99,0,1.799,0.808,1.799,1.799C71.233,106.802,70.424,107.61,69.434,107.61L69.434,107.61z"/>
		<path fill="#FFFFFF" d="M72.774,98.659c0.99,0,1.799,0.809,1.799,1.799s-0.809,1.799-1.799,1.799c-0.991,0-1.8-0.809-1.8-1.799
			S71.783,98.659,72.774,98.659L72.774,98.659z"/>
		<path fill="#FFFFFF" d="M76.114,93.307c0.99,0,1.799,0.809,1.799,1.799s-0.809,1.799-1.799,1.799c-0.991,0-1.8-0.809-1.8-1.799
			S75.123,93.307,76.114,93.307L76.114,93.307z"/>
		<path fill="#FFFFFF" d="M69.434,96.906c-0.991,0-1.8-0.809-1.8-1.799s0.809-1.799,1.8-1.799c0.99,0,1.799,0.809,1.799,1.799
			S70.424,96.906,69.434,96.906L69.434,96.906z"/>
		<path fill="#19338F" d="M80.891,92.102H92.42v13.853l0,0l0,0c0,2.389-2.59,4.338-5.765,4.338s-5.765-1.949-5.765-4.338l0,0l0,0
			V92.102L80.891,92.102z"/>
		<path fill="#FFFFFF" d="M89.996,107.611c-0.99,0-1.799-0.809-1.799-1.799c0-0.991,0.809-1.799,1.799-1.799
			c0.991,0,1.799,0.809,1.799,1.799C91.794,106.803,90.987,107.611,89.996,107.611L89.996,107.611z"/>
		<path fill="#FFFFFF" d="M83.316,107.611c-0.99,0-1.799-0.808-1.799-1.799c0-0.991,0.809-1.799,1.799-1.799
			c0.991,0,1.799,0.808,1.799,1.799C85.115,106.804,84.307,107.611,83.316,107.611L83.316,107.611z"/>
		<path fill="#FFFFFF" d="M86.656,98.661c0.991,0,1.799,0.809,1.799,1.799s-0.808,1.799-1.799,1.799
			c-0.99,0-1.799-0.808-1.799-1.799S85.666,98.661,86.656,98.661L86.656,98.661z"/>
		<path fill="#FFFFFF" d="M89.996,93.309c0.991,0,1.799,0.809,1.799,1.799s-0.808,1.799-1.799,1.799
			c-0.99,0-1.799-0.808-1.799-1.799S89.005,93.309,89.996,93.309L89.996,93.309z"/>
		<path fill="#FFFFFF" d="M83.316,96.907c-0.99,0-1.799-0.808-1.799-1.799s0.809-1.799,1.799-1.799c0.991,0,1.799,0.809,1.799,1.799
			S84.307,96.907,83.316,96.907L83.316,96.907z"/>
		<path fill="#19338F" d="M53.128,92.102h11.528v13.853l0,0l0,0c0,2.389-2.589,4.338-5.764,4.338c-3.176,0-5.765-1.949-5.765-4.338
			l0,0l0,0V92.102L53.128,92.102z"/>
		<path fill="#FFFFFF" d="M62.232,107.611c-0.99,0-1.799-0.809-1.799-1.799c0-0.991,0.809-1.799,1.799-1.799
			c0.991,0,1.8,0.809,1.8,1.799C64.032,106.803,63.223,107.611,62.232,107.611L62.232,107.611z"/>
		<path fill="#FFFFFF" d="M55.552,107.611c-0.99,0-1.799-0.808-1.799-1.799c0-0.991,0.809-1.799,1.799-1.799
			c0.991,0,1.8,0.808,1.8,1.799C57.352,106.804,56.543,107.611,55.552,107.611L55.552,107.611z"/>
		<path fill="#FFFFFF" d="M58.892,98.661c0.991,0,1.8,0.809,1.8,1.799s-0.809,1.799-1.8,1.799c-0.99,0-1.799-0.808-1.799-1.799
			S57.902,98.661,58.892,98.661L58.892,98.661z"/>
		<path fill="#FFFFFF" d="M62.232,93.309c0.991,0,1.8,0.809,1.8,1.799s-0.809,1.799-1.8,1.799c-0.99,0-1.799-0.808-1.799-1.799
			S61.242,93.309,62.232,93.309L62.232,93.309z"/>
		<path fill="#FFFFFF" d="M55.552,96.907c-0.99,0-1.799-0.808-1.799-1.799s0.809-1.799,1.799-1.799c0.991,0,1.8,0.809,1.8,1.799
			S56.543,96.907,55.552,96.907L55.552,96.907z"/>
		<path fill="#19338F" d="M67.009,69.837h11.529v13.853l0,0l0,0c0,2.389-2.59,4.338-5.765,4.338s-5.765-1.949-5.765-4.338l0,0l0,0
			V69.837L67.009,69.837z"/>
		<path fill="#FFFFFF" d="M76.114,85.347c-0.991,0-1.8-0.809-1.8-1.799s0.809-1.799,1.8-1.799c0.99,0,1.799,0.808,1.799,1.799
			S77.104,85.347,76.114,85.347L76.114,85.347z"/>
		<path fill="#FFFFFF" d="M69.434,85.347c-0.991,0-1.8-0.808-1.8-1.799s0.809-1.799,1.8-1.799c0.99,0,1.799,0.809,1.799,1.799
			S70.424,85.347,69.434,85.347L69.434,85.347z"/>
		<path fill="#FFFFFF" d="M72.774,76.396c0.99,0,1.799,0.808,1.799,1.799s-0.809,1.799-1.799,1.799c-0.991,0-1.8-0.809-1.8-1.799
			S71.783,76.396,72.774,76.396L72.774,76.396z"/>
		<path fill="#FFFFFF" d="M76.114,71.044c0.99,0,1.799,0.808,1.799,1.799s-0.809,1.799-1.799,1.799c-0.991,0-1.8-0.809-1.8-1.799
			S75.123,71.044,76.114,71.044L76.114,71.044z"/>
		<path fill="#FFFFFF" d="M69.434,74.643c-0.991,0-1.8-0.809-1.8-1.799s0.809-1.799,1.8-1.799c0.99,0,1.799,0.808,1.799,1.799
			S70.424,74.643,69.434,74.643L69.434,74.643z"/>
		<path fill="#19338F" d="M67.009,114.365h11.529v13.853l0,0l0,0c0,2.39-2.59,4.339-5.765,4.339s-5.765-1.949-5.765-4.339l0,0l0,0
			V114.365L67.009,114.365z"/>
		<path fill="#FFFFFF" d="M76.114,129.876c-0.991,0-1.8-0.809-1.8-1.8c0-0.99,0.809-1.799,1.8-1.799c0.99,0,1.799,0.809,1.799,1.799
			C77.913,129.067,77.104,129.876,76.114,129.876L76.114,129.876z"/>
		<path fill="#FFFFFF" d="M69.434,129.876c-0.991,0-1.8-0.809-1.8-1.799c0-0.991,0.809-1.8,1.8-1.8c0.99,0,1.799,0.809,1.799,1.8
			C71.233,129.067,70.424,129.876,69.434,129.876L69.434,129.876z"/>
		<path fill="#FFFFFF" d="M72.774,120.925c0.99,0,1.799,0.809,1.799,1.799c0,0.991-0.809,1.8-1.799,1.8c-0.991,0-1.8-0.809-1.8-1.8
			C70.974,121.733,71.783,120.925,72.774,120.925L72.774,120.925z"/>
		<path fill="#FFFFFF" d="M76.114,115.573c0.99,0,1.799,0.808,1.799,1.799c0,0.99-0.809,1.799-1.799,1.799
			c-0.991,0-1.8-0.809-1.8-1.799C74.314,116.381,75.123,115.573,76.114,115.573L76.114,115.573z"/>
		<path fill="#FFFFFF" d="M69.434,119.171c-0.991,0-1.8-0.809-1.8-1.799c0-0.991,0.809-1.799,1.8-1.799
			c0.99,0,1.799,0.808,1.799,1.799C71.233,118.362,70.424,119.171,69.434,119.171L69.434,119.171z"/>
		<path fill="#94814A" stroke="#000000" stroke-width="1.9732" stroke-miterlimit="1" d="M86.354,33.755
			c0.39,0.253,0.785,0.503,1.187,0.75c10.766,6.628,21.975,8.664,26.459,5.111l0,0l2.35-1.588l13.43,14.41l0,0
			c-9.14,15.911-14.752,37.303-14.752,60.772c0,6.265,0.4,12.382,1.161,18.285c-6.386,2.79-11.758,7.466-15.395,13.311
			c-4.229,5.863-9.274,10.663-14.913,14.069l0,0v-0.032l0,0c-1.439,0.905-3.429,1.468-5.621,1.468c-1.309,0-2.545-0.201-3.636-0.555
			l0,0v-0.01l0,0c-1.286-0.413-2.339-1.243-2.931-2.296c-0.185-0.37-0.332-0.777-0.432-1.212c-0.004-0.015-0.007-0.029-0.01-0.044
			c-0.465-2.105,0.373-4.069,1.877-4.386c1.049-0.221,2.154,0.419,2.896,1.537c0.583,0.62,1.562,1.027,2.667,1.027
			c0.635,0,1.228-0.135,1.728-0.366c5.632-3.466,10.661-8.326,14.866-14.249l0,0H97.3l0,0c3.344-4.587,7.813-8.317,13.001-10.785
			c-0.558-5.085-0.849-10.317-0.849-15.658c0-22.862,5.324-43.752,14.047-59.525l0,0l-9.043-9.704l-2.375,1.276l0,0
			c-4.728,3.133-15.598,1.027-26.05-5.408c-1.133-0.697-2.22-1.421-3.258-2.164c-1.14,1.967-3.492,3.22-5.698,2.894
			c-2.078-0.308-3.405-1.924-3.397-3.872c0-0.024,0-0.048,0-0.072c0.009-0.435,0.084-0.886,0.232-1.342
			c0.813-2.498,3.513-4.24,6.049-3.921C82.4,31.93,84.585,32.721,86.354,33.755L86.354,33.755z"/>
		<path fill="#94814A" stroke="#000000" stroke-width="1.9732" stroke-miterlimit="1" d="M59.193,33.755
			c-0.39,0.253-0.785,0.503-1.186,0.75c-10.767,6.628-21.976,8.664-26.459,5.111l0,0l-2.352-1.588l-13.429,14.41l0,0
			c9.14,15.911,14.752,37.303,14.752,60.772c0,6.266-0.4,12.382-1.161,18.285c6.386,2.79,11.758,7.466,15.395,13.311
			c4.229,5.863,9.274,10.664,14.914,14.07l0,0v-0.032l0,0c1.439,0.904,3.428,1.467,5.62,1.467c1.309,0,2.545-0.2,3.636-0.555l0,0
			v-0.01l0,0c1.286-0.413,2.339-1.243,2.931-2.296c0.185-0.37,0.333-0.777,0.433-1.212c0.003-0.015,0.006-0.029,0.009-0.044
			c0.465-2.104-0.373-4.069-1.877-4.386c-1.049-0.22-2.154,0.419-2.896,1.538c-0.583,0.619-1.563,1.026-2.668,1.026
			c-0.635,0-1.228-0.134-1.728-0.366c-5.631-3.466-10.661-8.326-14.866-14.248l0,0h-0.014l0,0
			c-3.344-4.588-7.813-8.318-13.001-10.785c0.557-5.086,0.848-10.318,0.848-15.659c0-22.861-5.324-43.752-14.047-59.525l0,0
			l9.043-9.704l2.375,1.276l0,0c4.729,3.133,15.599,1.027,26.05-5.408c1.133-0.697,2.221-1.421,3.259-2.164
			c1.139,1.967,3.491,3.22,5.698,2.894c2.078-0.308,3.404-1.924,3.397-3.872c-0.001-0.024-0.001-0.047-0.001-0.071
			c-0.009-0.435-0.084-0.887-0.232-1.343c-0.812-2.498-3.512-4.239-6.048-3.921C63.147,31.93,60.961,32.721,59.193,33.755
			L59.193,33.755z"/>
		<path fill="#94814A" stroke="#000000" stroke-width="0.1769" stroke-miterlimit="1" d="M58.505,55.43l-1.53-10.79l5.469-0.775
			l0.269,1.896l-3.859,0.547l0.352,2.483l3.378-0.479l0.269,1.896l-3.377,0.479l0.64,4.515L58.505,55.43L58.505,55.43z
			 M64.919,54.52l-0.307-2.167l1.576-0.224l0.307,2.167L64.919,54.52L64.919,54.52z"/>
		<path fill="#94814A" stroke="#000000" stroke-width="0.1769" stroke-miterlimit="1" d="M82.648,54.337l1.82-10.745l5.445,0.922
			l-0.32,1.888l-3.844-0.651l-0.418,2.473l3.362,0.569l-0.319,1.888l-3.363-0.57l-0.762,4.496L82.648,54.337L82.648,54.337z
			 M89.036,55.419l0.365-2.158l1.569,0.266l-0.365,2.158L89.036,55.419L89.036,55.419z"/>
		<path fill="#94814A" stroke="#000000" stroke-width="0.1769" stroke-miterlimit="1" d="M74.765,46.705
			c0-1.121-0.485-1.592-1.28-1.592l0,0h-1.59v3.243h1.59l0,0C74.28,48.356,74.765,47.825,74.765,46.705L74.765,46.705z
			 M76.444,46.705c0,2.536-1.016,3.479-2.826,3.479l0,0h-1.723v3.951h-1.723V43.226h3.577l0,0
			C75.383,43.226,76.444,44.347,76.444,46.705L76.444,46.705z M77.566,54.135v-2.182h1.679v2.182H77.566L77.566,54.135z"/>
	</g>
</svg>
